<svg width="194" height="21" viewBox="0 0 194 21" fill="none" xmlns="http://www.w3.org/2000/svg">
<path d="M19.629 14.678C19.5616 13.9151 20.1896 12.246 20.0884 12.4019C19.1906 13.4978 19.3213 13.7844 19.0895 14.8972C19.0811 14.9309 19.0768 14.9646 19.0684 15.0025C19.0389 15.1332 18.9968 15.2554 18.9462 15.3692C18.3814 16.5789 16.5563 16.8107 15.8904 16.7433C13.7914 16.5283 12.6449 14.1848 12.2023 12.8319C11.4732 10.9731 12.451 9.07639 13.0495 8.38936C13.3783 8.01423 12.8725 8.01423 12.5775 8.03109C11.8146 8.07745 11.3889 8.64225 10.7777 8.83192C10.626 8.87829 11.136 10.0964 11.2245 10.3071C10.9084 9.58217 10.1539 8.62539 10.0696 8.5158C9.29828 7.50423 6.45323 4.33463 4.77992 3.35255C3.84842 2.81726 2.00651 1.77618 1.00758 2.19767C0.118241 2.61916 0.5313 8.04795 1.27734 10.8045C1.30684 10.5263 1.33213 10.2481 1.36163 9.96994C1.44172 10.0964 1.51759 10.2186 1.59767 10.3451C1.66932 9.9573 1.74519 9.56953 1.81684 9.17754C1.8885 9.31242 1.96015 9.4473 2.0318 9.58217C2.15404 9.19019 2.27627 8.7982 2.3985 8.40622C2.49544 8.58324 2.59238 8.76027 2.68933 8.94151C2.78627 8.61275 2.88321 8.27977 2.98015 7.95101C3.11925 8.16597 3.26255 8.38093 3.40164 8.59589C3.52809 8.36828 3.65454 8.14489 3.78099 7.91729C3.90322 8.15754 4.02545 8.39357 4.1519 8.63382C4.25727 8.4863 4.35843 8.33456 4.4638 8.18704C4.53967 8.40622 4.61553 8.62539 4.68719 8.84457C4.78413 8.75605 4.88107 8.66333 4.97802 8.57481C5.03702 8.76448 5.09603 8.95415 5.15504 9.14804C5.23091 9.06796 5.30678 8.98366 5.38686 8.90357C5.43744 9.0806 5.49223 9.25763 5.54281 9.43465C5.61868 9.34614 5.69033 9.25763 5.7662 9.16911C5.82099 9.35457 5.87579 9.53581 5.93058 9.72127C5.9643 9.63275 5.99802 9.54845 6.03174 9.45994C6.12025 9.66226 6.20455 9.86457 6.29306 10.0669C6.31835 9.99945 6.34786 9.93201 6.37315 9.86457C6.47852 10.0669 6.78199 10.7328 6.841 11.1796C6.63025 10.8256 6.5291 10.5263 6.38158 10.2018C6.36472 10.2397 6.25934 10.4167 6.25934 10.4167C6.22562 10.3366 6.07389 9.87722 6.03595 9.8435C5.96009 9.90251 5.86736 9.99102 5.86736 9.99102C5.84628 9.91936 5.71984 9.58639 5.71562 9.56531C5.6819 9.60325 5.5976 9.68755 5.53438 9.73813C5.53438 9.73813 5.39951 9.49788 5.31099 9.35457C5.25198 9.37564 5.18033 9.40936 5.11289 9.43044C5.08339 9.40515 4.98644 9.18176 4.93587 9.08482C4.93587 9.08482 4.79677 9.27027 4.75041 9.32085C4.67876 9.23655 4.45958 8.912 4.43429 8.8825C4.43429 8.8825 4.20669 9.18597 4.17297 9.23655C4.11818 9.17754 3.88214 8.82771 3.78099 8.6844C3.71355 8.81506 3.62082 9.03002 3.49016 9.24077C3.37214 9.13539 3.23726 8.95415 3.13189 8.79399C3.08553 8.94994 2.93379 9.51473 2.84528 9.77606C2.78627 9.61589 2.72305 9.40515 2.63875 9.21969C2.58817 9.26184 2.30577 10.2608 2.25941 10.3071C2.19197 10.2355 2.07817 10.0669 1.98122 9.93622C1.94751 9.98259 1.79577 10.7371 1.74519 11.0574C1.7199 11.0152 1.58502 10.7919 1.4923 10.6485C1.4375 10.7834 1.42064 11.1923 1.46701 11.4494C1.5218 11.618 1.57659 11.7824 1.6356 11.9425C3.68404 17.5441 14.3098 21.4345 19.5489 16.9203C19.9283 17.2617 20.7586 17.5483 22.1748 17.5778C21.5426 17.1268 19.7934 16.5915 19.629 14.678ZM10.0022 10.3198L9.70713 11.226C9.72399 11.3482 9.74085 11.4747 9.75771 11.5969C9.67762 11.7065 9.59333 11.8119 9.51324 11.9214C9.53853 11.9847 9.56382 12.0521 9.58911 12.1153L10.2593 10.9984C10.1708 11.2681 10.0823 11.5379 9.99374 11.8076C10.0106 11.9299 10.0275 12.0563 10.0443 12.1786C9.96845 12.2713 9.88837 12.364 9.8125 12.4525C9.83779 12.5157 9.86729 12.5832 9.89258 12.6464C10.0696 12.3471 10.3309 11.8751 10.508 11.5758C10.4532 11.7866 10.3183 12.1659 10.2593 12.3767C10.2761 12.4989 10.293 12.6253 10.3099 12.7476C10.2508 12.8192 10.1918 12.8909 10.1328 12.9625C9.69448 12.5705 9.40787 12.0774 9.30671 11.4494L10.0022 10.3198ZM8.84729 9.06374C8.7925 9.40515 8.51853 9.2787 8.33729 9.10589C8.15605 8.93308 8.32464 8.38093 8.32464 8.38093L8.39208 8.67597C8.39208 8.67597 8.9358 8.52423 8.84729 9.06374ZM13.2645 17.679C13.2645 17.679 13.2645 17.679 13.3109 17.6916C13.2814 17.6832 13.2645 17.679 13.2645 17.679ZM16.7966 17.5273C16.1728 17.5821 15.0727 18.1932 14.1665 17.9361C13.9389 17.8729 13.7703 17.8223 13.6396 17.7844C13.9389 17.856 14.411 17.9235 15.039 17.8223C15.667 17.7254 16.6617 17.3123 16.8177 17.2912C15.5363 17.4556 14.5205 17.2912 13.6944 16.8782C12.7756 16.423 12.2529 15.6516 11.7514 14.7539C11.7514 14.7539 12.8219 16.1869 13.5343 16.5747C15.3972 17.5821 15.9747 16.9751 16.8977 17.1395C17.8208 17.3039 17.9262 17.5483 17.9262 17.5483C17.5342 17.4851 17.4204 17.4725 16.7966 17.5273Z" fill="white"/>
<path d="M18.6258 5.99529C18.9209 6.72869 19.0895 7.73605 19.0684 8.43994C19.3171 8.26713 19.6079 8.14489 19.9325 8.09853C20.5099 8.01423 21.0621 8.18283 21.4835 8.5158C22.5921 7.49158 24.6953 6.40836 23.7259 4.14074C22.6216 1.56544 17.6859 1.81833 17.1591 3.15445C16.6322 4.48636 18.1917 4.90785 18.6258 5.99529Z" fill="white"/>
<path d="M19.355 9.75498C19.1443 10.2818 19.4056 10.8804 19.9325 11.0911C20.4593 11.3019 21.0578 11.0405 21.2686 10.5137C21.4793 9.9868 21.218 9.38829 20.6911 9.17754C20.1601 8.97101 19.5616 9.22812 19.355 9.75498Z" fill="white"/>
<path d="M24.7332 10.6823C23.9493 10.5685 22.9208 10.3324 22.3265 9.96151C22.3518 10.265 22.3097 10.5769 22.1917 10.8804C21.9767 11.4199 21.5552 11.8161 21.0536 12.0142C21.3824 13.4852 21.2728 15.8497 23.7217 16.1406C26.5035 16.4735 28.7542 12.0732 27.8607 10.9478C26.9671 9.82664 25.8923 10.8509 24.7332 10.6823Z" fill="white"/>
<path d="M15.8187 16.2501C17.2391 16.0394 16.8219 14.7243 17.4541 13.7423C18.0779 12.7729 18.8197 12.2797 19.4393 11.9509C19.1654 11.8203 18.9125 11.6306 18.7101 11.3735C18.3477 10.9183 18.217 10.3535 18.2971 9.82242C16.8556 9.37143 14.8662 8.09431 13.3867 10.0669C11.7092 12.3134 14.3941 16.4609 15.8187 16.2501Z" fill="white"/>
<path d="M27.1231 9.86879C27.3085 9.86879 27.3928 9.93622 27.5614 10.0037C27.9829 10.1723 28.0209 10.3071 28.0209 10.3071C27.5193 7.25976 26.7311 6.37885 26.7311 6.37885C26.7311 6.37885 27.6879 8.43994 27.1231 9.86879ZM16.6533 4.26719C16.5395 4.11967 16.5437 4.01008 16.4931 3.83305C16.3667 3.3947 16.4552 3.28512 16.4552 3.28512C14.3477 5.54009 14.1286 6.7034 14.1286 6.7034C14.1286 6.7034 15.1781 4.68868 16.6533 4.26719ZM15.5658 6.29455C15.5658 6.29455 16.1686 5.01322 17.707 5.34199C17.5932 5.19446 17.5848 5.18603 17.3614 5.05959C17.2307 4.98793 17.041 4.76454 17.041 4.76454C15.6164 5.40521 15.5658 6.29455 15.5658 6.29455ZM26.4951 9.86879C26.8533 8.35142 26.1789 7.76977 26.1789 7.76977C26.1789 7.76977 26.828 9.03002 25.6268 10.0458C25.8165 10.0458 25.8291 10.0416 26.0609 9.94465C26.2042 9.88143 26.4951 9.86879 26.4951 9.86879Z" fill="white"/>
<path d="M0.198324 11.9257C0.771549 12.2376 1.64403 12.3556 1.64403 12.3556L1.50073 12.0226C1.50073 12.0226 0.581879 11.9762 0.147745 11.7191C-0.488704 11.344 1.03709 13.6411 2.69776 14.071L2.20883 13.443C2.21304 13.443 0.733615 12.9414 0.198324 11.9257Z" fill="white"/>
<path d="M13.2645 17.679C13.2645 17.679 13.2645 17.679 13.3109 17.6916C13.2814 17.6832 13.2645 17.679 13.2645 17.679Z" fill="white"/>
<path d="M173.612 4.95422L173.022 9.76341C174.851 9.41779 176.604 9.05953 178.282 8.68861L178.712 5.01322C178.746 4.7224 178.703 4.51165 178.585 4.3852C178.463 4.25454 178.244 4.19132 177.924 4.19132H173.393C173.527 4.39363 173.603 4.6381 173.608 4.9205V4.94157L173.612 4.95422ZM49.1333 4.19975C49.07 4.19132 48.9984 4.1871 48.9225 4.1871H43.3209L39.1945 12.2376L35.8901 4.7224L35.8268 4.54115C35.7889 4.42735 35.7173 4.34305 35.6077 4.28405C35.477 4.21661 35.3 4.17867 35.0682 4.17867H30.5456C30.6847 4.38099 30.7563 4.62545 30.7647 4.90785V4.92893L29.4623 16.1996C31.1778 16.2291 32.8806 16.2544 34.5708 16.2796L35.4306 8.81085L38.6297 16.3387L38.9838 16.3429L44.5095 5.78876L43.2914 16.3934C45.0069 16.4103 46.7097 16.4272 48.3957 16.444L49.7149 5.01322C49.7233 4.95 49.7276 4.89099 49.7276 4.83198C49.7276 4.63388 49.6812 4.48636 49.5885 4.3852C49.4957 4.28405 49.344 4.22082 49.1333 4.19975ZM162.312 11.5084C162.577 9.28292 162.813 7.06166 163.016 4.81934C163.016 4.62545 162.973 4.48215 162.885 4.3852C162.796 4.28826 162.645 4.22504 162.442 4.19975C162.375 4.19132 162.299 4.1871 162.223 4.1871H157.692C157.831 4.38942 157.903 4.63388 157.911 4.91628V4.93736L157.056 12.2038C158.855 11.9805 160.609 11.7486 162.312 11.5084ZM156.289 7.46629L156.672 4.1871H144.006C144.141 4.38942 144.217 4.63388 144.221 4.91628V4.93736L143.214 13.658C144.976 13.502 146.7 13.3376 148.386 13.1691L148.516 12.0268H153.22L153.41 10.3872H148.706L149.106 6.91414H154.683C155.037 6.91414 155.382 6.9858 155.715 7.13332C155.913 7.22183 156.103 7.33142 156.289 7.46629ZM125.01 4.28826H121.28C120.521 4.28826 119.931 4.50744 119.509 4.94157C119.079 5.38835 118.805 6.07116 118.696 6.9858L117.95 13.2744C117.861 13.991 117.651 14.5347 117.309 14.9098C117.098 15.1458 116.841 15.3102 116.542 15.4029C118.978 15.2891 121.368 15.1711 123.707 15.0405L123.712 14.9941L125.01 4.28826ZM115.446 15.4577C115.084 15.3819 114.806 15.2133 114.607 14.9435C114.393 14.6527 114.283 14.2523 114.283 13.7507C114.283 13.5863 114.296 13.4051 114.317 13.2154L115.383 4.29248H113.179C111.889 4.29248 110.894 4.57909 110.194 5.1481C109.499 5.7129 109.086 6.56852 108.947 7.71919L108.066 15.0573C108.036 15.3018 108.024 15.5378 108.024 15.757C110.549 15.6643 113.023 15.5631 115.446 15.4577ZM94.6879 5.08488C94.1146 5.62017 93.7943 6.40835 93.7226 7.45365C93.6552 8.5158 93.887 9.46837 94.4265 10.3198C94.9703 11.1796 95.8259 11.9383 96.9976 12.5958L100.108 14.2439L100.121 14.2523C100.277 14.3661 100.382 14.4925 100.437 14.6358C100.496 14.7918 100.488 14.9562 100.42 15.1248C100.348 15.3018 100.218 15.4282 100.02 15.5083C99.8595 15.5758 99.653 15.6095 99.4043 15.6095H95.2316C94.907 15.5715 94.612 15.4367 94.3591 15.1922C94.3001 15.1374 94.2453 15.0784 94.1905 15.011L94.1273 16.1616C98.3717 16.0647 102.494 15.9467 106.494 15.8076C106.527 15.6263 106.549 15.4409 106.557 15.2386C106.62 14.1511 106.346 13.1859 105.731 12.3387C105.107 11.4789 104.133 10.7413 102.81 10.1217C101.836 9.63275 100.854 9.10168 99.889 8.59167L99.8764 8.58324C99.6909 8.45258 99.5687 8.31349 99.5097 8.16175C99.438 7.98473 99.4549 7.80349 99.5476 7.62225C99.6361 7.45786 99.7794 7.33142 99.9818 7.25555C100.155 7.18811 100.37 7.15439 100.622 7.15439H106.161L106.334 4.21239H97.2084C96.1041 4.26297 95.2611 4.5538 94.6879 5.08488ZM73.8368 16.4609L75.1055 5.60331L77.6934 5.61595C77.2635 6.20604 77.0317 6.94365 76.9474 7.66018L76.058 15.0447C75.9948 15.5758 75.999 16.0394 76.0791 16.444C81.3477 16.3977 86.4562 16.326 91.4044 16.2249C91.5478 15.8582 91.6447 15.4451 91.7037 14.9815L92.6057 7.59696C92.7448 6.45472 92.5467 5.60752 92.0072 5.05537C91.4635 4.49479 90.5573 4.21661 89.2886 4.21661H81.3772L74.5533 4.19132C74.5238 4.19132 74.4859 4.1871 74.4479 4.1871C74.4226 4.1871 74.4016 4.18289 74.3678 4.18289H69.8158L69.8242 4.19132L63.6325 4.21661H55.6284C54.3387 4.21661 53.3439 4.50322 52.6443 5.07645C51.9488 5.64546 51.5315 6.5053 51.3924 7.66018L50.4989 15.0447C50.4314 15.58 50.4399 16.052 50.5242 16.4567C55.7211 16.4946 60.7917 16.5073 65.7273 16.4988C65.9338 16.0647 66.0729 15.5631 66.1446 14.9815L67.0466 7.59696C67.1435 6.81298 67.0761 6.16811 66.8527 5.66232C68.2942 5.64124 69.7146 5.60752 69.997 5.60752L68.7157 16.4904C70.4353 16.482 72.1466 16.4735 73.8368 16.4609ZM57.2259 9.19862C57.4029 7.71919 58.0857 6.98158 59.2785 6.98158C59.8897 6.98158 60.3322 7.18811 60.6062 7.59696C60.8633 7.98051 60.9476 8.53688 60.8591 9.26184L60.3786 13.2576C60.2901 13.9783 60.0793 14.5262 59.7422 14.9014C59.3923 15.2934 58.916 15.4872 58.3175 15.4872C57.7064 15.4872 57.2638 15.2807 56.9898 14.8677C56.7369 14.4799 56.6526 13.9235 56.7411 13.1943L57.2259 9.19862ZM82.785 9.19862C82.962 7.71919 83.6448 6.98158 84.8376 6.98158C85.4488 6.98158 85.8914 7.18811 86.1653 7.59696C86.4224 7.98051 86.5067 8.53688 86.4182 9.26184L85.9377 13.2576C85.8492 13.9783 85.6385 14.5262 85.3013 14.9014C84.9472 15.2934 84.4752 15.4872 83.8766 15.4872C83.2655 15.4872 82.8229 15.2807 82.549 14.8677C82.2961 14.4799 82.2118 13.9235 82.3003 13.1943L82.785 9.19862ZM132.289 11.7191C132.972 12.579 133.642 13.4725 134.308 14.3703C135.72 14.2691 137.111 14.1638 138.481 14.0542L136.647 11.5927H138.055C139.235 11.5927 140.146 11.3524 140.782 10.8677C141.406 10.3956 141.777 9.67912 141.895 8.71812L142.127 6.90571C142.236 5.99108 142.051 5.31248 141.562 4.86992C141.056 4.41471 140.221 4.1871 139.058 4.1871H127.345C127.48 4.38942 127.551 4.63388 127.556 4.9205V4.94579C127.24 7.51266 126.515 11.6812 126.182 14.9056C127.981 14.8002 129.752 14.6864 131.488 14.5726L131.897 11.2344L132.289 11.7191ZM132.517 6.79191C132.622 5.93629 133.267 5.50637 134.464 5.50637C135.041 5.50637 135.471 5.61174 135.754 5.82248C136.074 6.05852 136.205 6.40414 136.154 6.85513L135.888 8.97101C135.838 9.40515 135.636 9.73812 135.286 9.9573C134.961 10.1638 134.514 10.265 133.945 10.265C133.368 10.265 132.938 10.1596 132.656 9.94887C132.335 9.71284 132.205 9.363 132.255 8.912L132.517 6.79191ZM171.302 10.0795L169.532 4.5833C169.494 4.45686 169.422 4.36413 169.317 4.30091C169.186 4.22504 169.001 4.1871 168.76 4.1871H164.234C164.369 4.38942 164.444 4.63388 164.453 4.91628V4.93736L163.703 11.3103C165.502 11.049 167.243 10.775 168.929 10.4926L169.136 8.75184L169.658 10.3661C170.21 10.2734 170.758 10.1765 171.302 10.0795ZM192.672 4.46107C192.254 4.26719 191.723 4.17024 191.078 4.17024H184.09C182.994 4.17024 182.139 4.45264 181.523 5.02165C180.908 5.59488 180.52 6.46315 180.368 7.63068L180.288 8.22919C185.093 7.09117 189.215 5.83513 192.672 4.46107Z" fill="white"/>
<path d="M192.823 14.9688L193.064 13.1817H193.359L193.548 11.8203H187.23L187.04 13.1817H190.943C190.91 13.4262 190.884 13.6791 190.846 13.9235C190.766 14.4293 190.61 14.8171 190.383 15.0826C190.134 15.3734 189.81 15.5168 189.409 15.5168H186.063C185.51 15.5168 185.118 15.306 184.887 14.8803C184.68 14.4967 184.625 13.9446 184.722 13.2238L185.253 9.21126C185.338 8.58324 185.498 8.0901 185.734 7.72762C183.985 8.22919 182.122 8.70969 180.149 9.16911L179.348 15.032C179.31 15.3102 179.289 15.5715 179.289 15.8118C179.281 16.5873 179.458 17.1859 179.812 17.6116C180.162 18.033 180.705 18.2944 181.435 18.3955C181.645 18.425 181.869 18.4419 182.109 18.4419H189.085C190.185 18.4419 191.045 18.1553 191.656 17.5863C192.284 17.0173 192.672 16.1448 192.823 14.9688ZM188.2 6.99423H190.387C190.813 6.99423 191.129 7.13753 191.331 7.41993C191.479 7.62646 191.555 7.90886 191.559 8.25448H193.734L193.822 7.56324C193.961 6.48422 193.839 5.66653 193.456 5.11017C191.854 5.76769 190.105 6.3915 188.2 6.99423ZM43.1903 17.287L43.1523 17.62C43.1186 17.915 43.1608 18.1216 43.2788 18.2522C43.401 18.3829 43.6202 18.4461 43.9363 18.4461H48.6022L48.6359 18.1553L48.6064 18.1511C48.4715 18.13 48.3746 18.0668 48.3114 17.9572C48.2608 17.8687 48.2439 17.7633 48.2566 17.6411L48.2903 17.3376C46.6043 17.3249 44.9015 17.3081 43.1903 17.287ZM29.357 17.0931L29.298 17.6116C29.2642 17.9066 29.3064 18.1131 29.4244 18.2438C29.5466 18.3745 29.7658 18.4377 30.0819 18.4377H34.752L34.7858 18.1468L34.7605 18.1426C34.6256 18.1216 34.5286 18.0583 34.4654 17.9487C34.4148 17.8602 34.3938 17.7549 34.4106 17.6284L34.4612 17.1732C32.7753 17.1521 31.0724 17.1226 29.357 17.0931ZM64.8843 17.5821C64.956 17.523 65.0276 17.4598 65.0951 17.3924C60.4755 17.4008 55.738 17.3882 50.8909 17.3544C50.9541 17.443 51.0215 17.523 51.0932 17.6031C51.6369 18.1679 52.5473 18.4461 53.8202 18.4461H61.9044C63.1899 18.4461 64.1847 18.1595 64.8843 17.5821ZM73.6977 17.6411L73.7314 17.3587C72.0412 17.3713 70.3342 17.3797 68.6103 17.384L68.5808 17.62C68.5471 17.9108 68.5892 18.1216 68.7115 18.2522C68.8337 18.3829 69.0529 18.4461 69.369 18.4461H74.0433L74.077 18.1553L74.0517 18.1511C73.9169 18.13 73.8199 18.0668 73.7567 17.9572C73.6977 17.8729 73.6808 17.7675 73.6977 17.6411ZM90.4435 17.5821C90.6078 17.4472 90.7554 17.2954 90.8902 17.1268C86.2159 17.2196 81.3941 17.2912 76.4331 17.3334C76.4964 17.4303 76.5722 17.5188 76.6523 17.5989C77.196 18.1637 78.1065 18.4419 79.3794 18.4419H87.4635C88.7491 18.4461 89.7438 18.1595 90.4435 17.5821ZM94.0683 17.0594L94.0514 17.3797C94.0472 17.4219 94.0472 17.4725 94.0472 17.5273C94.0472 17.8392 94.1104 18.0668 94.2327 18.2143C94.3465 18.3534 94.5319 18.4292 94.7848 18.4419C94.8059 18.4419 94.8396 18.4419 94.8775 18.4419H102.506C103.813 18.4419 104.804 18.1721 105.47 17.6368C105.781 17.3882 106.022 17.0805 106.203 16.7096C102.275 16.8487 98.2326 16.9667 94.0683 17.0594ZM108.142 16.6463C108.247 17.0299 108.424 17.3502 108.677 17.6073C109.225 18.1679 110.135 18.4461 111.404 18.4461H119.488C120.778 18.4461 121.769 18.1595 122.468 17.5863C122.957 17.1859 123.307 16.6379 123.518 15.9467C118.612 16.2164 113.486 16.4525 108.142 16.6463ZM126.097 15.7991C126.042 16.4777 126.009 17.0973 126.009 17.6242C126 17.6916 125.996 17.7549 125.996 17.8139C125.996 18.0078 126.038 18.1511 126.127 18.248C126.215 18.3449 126.363 18.4082 126.565 18.4335C126.633 18.4419 126.704 18.4461 126.784 18.4461H131.454L131.488 18.1553L131.463 18.1511C131.328 18.13 131.231 18.0668 131.168 17.9572C131.117 17.8687 131.096 17.7633 131.113 17.6368L131.379 15.4662C129.65 15.5842 127.889 15.6938 126.097 15.7991ZM134.927 15.2217C135.716 16.3049 136.5 17.3882 137.284 18.4503H141.195C141.368 18.4503 141.494 18.4335 141.574 18.404C141.604 18.3913 141.621 18.3829 141.625 18.3787C141.625 18.3787 141.621 18.366 141.617 18.3407C141.595 18.2691 141.545 18.1806 141.465 18.071L139.109 14.9014C137.735 15.011 136.344 15.1163 134.927 15.2217ZM143.113 14.56L142.759 17.62C142.725 17.9108 142.767 18.1216 142.889 18.2522C143.012 18.3829 143.231 18.4461 143.547 18.4461H148.356L148.39 18.1511C148.242 18.1384 148.129 18.0963 148.04 18.033C147.914 17.9361 147.859 17.8054 147.88 17.6411L148.289 14.0753C146.594 14.2439 144.875 14.404 143.113 14.56ZM161.587 17.9614C161.536 17.8729 161.515 17.7675 161.528 17.6411C161.768 15.8877 161.996 14.1553 162.202 12.423C160.499 12.6633 158.746 12.8909 156.942 13.1143L156.411 17.62C156.402 17.6832 156.398 17.7422 156.398 17.8012C156.398 17.9993 156.445 18.1468 156.533 18.248C156.626 18.3492 156.777 18.4124 156.984 18.4377C157.047 18.4461 157.115 18.4503 157.191 18.4503H161.861L161.894 18.1595L161.869 18.1553C161.747 18.13 161.65 18.0668 161.587 17.9614ZM163.589 12.2249L162.952 17.62C162.944 17.6832 162.94 17.7422 162.94 17.8012C162.94 17.9993 162.986 18.1468 163.075 18.248C163.167 18.3492 163.319 18.4124 163.526 18.4377C163.589 18.4461 163.656 18.4503 163.732 18.4503H168.402L168.436 18.1595L168.411 18.1553C168.276 18.1342 168.179 18.071 168.116 17.9614C168.065 17.8729 168.044 17.7675 168.061 17.6411L168.807 11.4157C167.129 11.6938 165.384 11.9678 163.589 12.2249ZM172.908 10.6907L172.52 13.8603L171.576 10.9352C171.032 11.0321 170.484 11.129 169.932 11.226L172.124 17.9783C172.149 18.1342 172.221 18.248 172.33 18.3197C172.461 18.404 172.651 18.4461 172.904 18.4461H177.578L177.612 18.1553L177.586 18.1511C177.452 18.13 177.355 18.0668 177.291 17.9572C177.241 17.8687 177.22 17.7633 177.237 17.6368L178.172 9.62011C176.491 9.99523 174.737 10.3493 172.908 10.6907Z" fill="white"/>
<path d="M192.824 14.9685L193.064 13.1814H193.359L193.549 11.82H187.231L187.041 13.1814H190.944C190.91 13.4259 190.885 13.6788 190.847 13.9232C190.767 14.429 190.611 14.8168 190.383 15.0823C190.135 15.3731 189.81 15.5164 189.41 15.5164H186.063C185.511 15.5164 185.119 15.3057 184.887 14.88C184.681 14.4964 184.626 13.9443 184.723 13.2235L185.254 9.21096C185.338 8.58294 185.498 8.0898 185.734 7.72732C183.985 8.22889 182.122 8.70939 180.15 9.16881L179.349 15.0317C179.311 15.3099 179.29 15.5712 179.29 15.8115C179.281 16.587 179.458 17.1855 179.812 17.6113C180.162 18.0327 180.706 18.2941 181.435 18.3952C181.646 18.4247 181.869 18.4416 182.109 18.4416H189.085C190.185 18.4416 191.045 18.155 191.656 17.586C192.284 17.017 192.672 16.1445 192.824 14.9685ZM188.2 6.99392H190.388C190.813 6.99392 191.129 7.13723 191.332 7.41963C191.479 7.62616 191.555 7.90856 191.559 8.25418H193.734L193.823 7.56293C193.962 6.48392 193.84 5.66623 193.456 5.10986C191.854 5.76739 190.105 6.39119 188.2 6.99392ZM43.1907 17.2867L43.1527 17.6197C43.119 17.9147 43.1611 18.1213 43.2792 18.2519C43.4014 18.3826 43.6206 18.4458 43.9367 18.4458H48.6026L48.6363 18.155L48.6068 18.1508C48.4719 18.1297 48.375 18.0665 48.3118 17.9569C48.2612 17.8684 48.2443 17.763 48.257 17.6408L48.2907 17.3373C46.6047 17.3246 44.9019 17.3078 43.1907 17.2867ZM29.3574 17.0928L29.2983 17.6113C29.2646 17.9063 29.3068 18.1128 29.4248 18.2435C29.547 18.3741 29.7662 18.4374 30.0823 18.4374H34.7524L34.7861 18.1465L34.7609 18.1423C34.626 18.1213 34.529 18.058 34.4658 17.9484C34.4152 17.8599 34.3942 17.7546 34.411 17.6281L34.4616 17.1729C32.7756 17.1518 31.0728 17.1223 29.3574 17.0928ZM64.8847 17.5817C64.9564 17.5227 65.028 17.4595 65.0955 17.3921C60.4759 17.4005 55.7384 17.3879 50.8913 17.3541C50.9545 17.4427 51.0219 17.5227 51.0936 17.6028C51.6373 18.1676 52.5477 18.4458 53.8206 18.4458H61.9048C63.1903 18.4458 64.1851 18.1592 64.8847 17.5817ZM73.6981 17.6408L73.7318 17.3584C72.0416 17.371 70.3346 17.3794 68.6107 17.3836L68.5812 17.6197C68.5475 17.9105 68.5896 18.1213 68.7119 18.2519C68.8341 18.3826 69.0533 18.4458 69.3694 18.4458H74.0437L74.0774 18.155L74.0521 18.1508C73.9173 18.1297 73.8203 18.0665 73.7571 17.9569C73.6981 17.8726 73.6812 17.7672 73.6981 17.6408ZM90.4439 17.5817C90.6082 17.4469 90.7558 17.2951 90.8906 17.1265C86.2163 17.2193 81.3945 17.2909 76.4335 17.3331C76.4968 17.43 76.5726 17.5185 76.6527 17.5986C77.1964 18.1634 78.1069 18.4416 79.3798 18.4416H87.4639C88.7495 18.4458 89.7442 18.1592 90.4439 17.5817ZM94.0687 17.0591L94.0518 17.3794C94.0476 17.4216 94.0476 17.4722 94.0476 17.527C94.0476 17.8389 94.1108 18.0665 94.2331 18.214C94.3469 18.3531 94.5323 18.4289 94.7852 18.4416C94.8063 18.4416 94.84 18.4416 94.8779 18.4416H102.507C103.814 18.4416 104.804 18.1718 105.47 17.6365C105.782 17.3879 106.022 17.0802 106.203 16.7093C102.275 16.8484 98.233 16.9664 94.0687 17.0591ZM108.142 16.646C108.248 17.0296 108.425 17.3499 108.677 17.607C109.225 18.1676 110.136 18.4458 111.405 18.4458H119.489C120.778 18.4458 121.769 18.1592 122.469 17.586C122.958 17.1855 123.307 16.6376 123.518 15.9464C118.612 16.2161 113.487 16.4522 108.142 16.646ZM126.098 15.7988C126.043 16.4774 126.009 17.097 126.009 17.6239C126.001 17.6913 125.997 17.7546 125.997 17.8136C125.997 18.0075 126.039 18.1508 126.127 18.2477C126.216 18.3446 126.363 18.4079 126.566 18.4332C126.633 18.4416 126.705 18.4458 126.785 18.4458H131.455L131.489 18.155L131.463 18.1508C131.328 18.1297 131.231 18.0665 131.168 17.9569C131.118 17.8684 131.097 17.763 131.113 17.6365L131.379 15.4659C129.651 15.5839 127.889 15.6935 126.098 15.7988ZM134.928 15.2214C135.716 16.3046 136.5 17.3879 137.284 18.45H141.195C141.368 18.45 141.495 18.4332 141.575 18.4037C141.604 18.391 141.621 18.3826 141.625 18.3784C141.625 18.3784 141.621 18.3657 141.617 18.3404C141.596 18.2688 141.545 18.1803 141.465 18.0707L139.109 14.9011C137.735 15.0107 136.344 15.116 134.928 15.2214ZM143.113 14.5597L142.759 17.6197C142.725 17.9105 142.768 18.1213 142.89 18.2519C143.012 18.3826 143.231 18.4458 143.547 18.4458H148.357L148.39 18.1508C148.243 18.1381 148.129 18.096 148.04 18.0327C147.914 17.9358 147.859 17.8051 147.88 17.6408L148.289 14.075C146.595 14.2435 144.875 14.4037 143.113 14.5597ZM161.587 17.9611C161.537 17.8726 161.515 17.7672 161.528 17.6408C161.768 15.8874 161.996 14.155 162.202 12.4227C160.5 12.663 158.746 12.8906 156.942 13.114L156.411 17.6197C156.403 17.6829 156.399 17.7419 156.399 17.8009C156.399 17.999 156.445 18.1465 156.533 18.2477C156.626 18.3489 156.778 18.4121 156.984 18.4374C157.048 18.4458 157.115 18.45 157.191 18.45H161.861L161.895 18.1592L161.87 18.155C161.747 18.1297 161.65 18.0665 161.587 17.9611ZM163.589 12.2246L162.953 17.6197C162.944 17.6829 162.94 17.7419 162.94 17.8009C162.94 17.999 162.986 18.1465 163.075 18.2477C163.168 18.3489 163.319 18.4121 163.526 18.4374C163.589 18.4458 163.657 18.45 163.732 18.45H168.403L168.436 18.1592L168.411 18.155C168.276 18.1339 168.179 18.0707 168.116 17.9611C168.065 17.8726 168.044 17.7672 168.061 17.6408L168.807 11.4154C167.13 11.6935 165.385 11.9675 163.589 12.2246ZM172.908 10.6904L172.521 13.86L171.576 10.9349C171.033 11.0318 170.485 11.1287 169.933 11.2257L172.124 17.9779C172.15 18.1339 172.221 18.2477 172.331 18.3194C172.462 18.4037 172.651 18.4458 172.904 18.4458H177.578L177.612 18.155L177.587 18.1508C177.452 18.1297 177.355 18.0665 177.292 17.9569C177.241 17.8684 177.22 17.763 177.237 17.6365L178.173 9.6198C176.491 9.99493 174.738 10.349 172.908 10.6904Z" fill="#FE5414"/>
</svg>
