<svg width="16" height="18" viewBox="0 0 16 18" fill="none" xmlns="http://www.w3.org/2000/svg">
<path fill-rule="evenodd" clip-rule="evenodd" d="M12 4.00169V4C12 1.79086 10.2091 0 8 0C5.79086 0 4 1.79086 4 4V4.00169C2.83507 4.00979 2.16873 4.05658 1.63803 4.32698C1.07354 4.6146 0.614601 5.07354 0.32698 5.63803C0 6.27976 0 7.11984 0 8.8V13.2C0 14.8802 0 15.7202 0.32698 16.362C0.614601 16.9265 1.07354 17.3854 1.63803 17.673C2.27976 18 3.11984 18 4.8 18H11.2C12.8802 18 13.7202 18 14.362 17.673C14.9265 17.3854 15.3854 16.9265 15.673 16.362C16 15.7202 16 14.8802 16 13.2V8.8C16 7.11984 16 6.27976 15.673 5.63803C15.3854 5.07354 14.9265 4.6146 14.362 4.32698C13.8313 4.05658 13.1649 4.00979 12 4.00169ZM10 4C10 2.89543 9.10457 2 8 2C6.89543 2 6 2.89543 6 4L10 4ZM2.99247 6.03423C3.39239 6.00156 3.92692 6 4.8 6H11.2C12.0731 6 12.6076 6.00156 13.0075 6.03423C13.1938 6.04945 13.3065 6.06857 13.375 6.08469C13.4076 6.09236 13.4276 6.09879 13.4384 6.10265C13.4488 6.10636 13.454 6.10899 13.454 6.10899C13.6422 6.20487 13.7951 6.35785 13.891 6.54601C13.891 6.54601 13.8936 6.55118 13.8973 6.56158C13.9012 6.57241 13.9076 6.59244 13.9153 6.625C13.9314 6.69345 13.9505 6.80617 13.9658 6.99247C13.9984 7.39239 14 7.92692 14 8.8V13.2C14 14.0731 13.9984 14.6076 13.9658 15.0075C13.9505 15.1938 13.9314 15.3065 13.9153 15.375C13.9076 15.4076 13.9012 15.4276 13.8973 15.4384C13.8936 15.4488 13.891 15.454 13.891 15.454C13.7951 15.6422 13.6422 15.7951 13.454 15.891C13.454 15.891 13.4488 15.8936 13.4384 15.8973C13.4276 15.9012 13.4076 15.9076 13.375 15.9153C13.3065 15.9314 13.1938 15.9505 13.0075 15.9658C12.6076 15.9984 12.0731 16 11.2 16H4.8C3.92692 16 3.39239 15.9984 2.99247 15.9658C2.80617 15.9505 2.69345 15.9314 2.625 15.9153C2.59244 15.9076 2.57241 15.9012 2.56158 15.8973C2.55118 15.8936 2.54601 15.891 2.54601 15.891C2.35785 15.7951 2.20487 15.6422 2.10899 15.454C2.10899 15.454 2.10636 15.4488 2.10265 15.4384C2.09879 15.4276 2.09236 15.4076 2.08469 15.375C2.06857 15.3065 2.04945 15.1938 2.03423 15.0075C2.00156 14.6076 2 14.0731 2 13.2V8.8C2 7.92692 2.00156 7.39239 2.03423 6.99247C2.04945 6.80617 2.06857 6.69345 2.08469 6.625C2.09236 6.59244 2.09879 6.57241 2.10265 6.56158C2.10636 6.55118 2.10899 6.54601 2.10899 6.54601C2.20487 6.35785 2.35785 6.20487 2.54601 6.10899C2.54601 6.10899 2.55118 6.10636 2.56158 6.10265C2.57241 6.09879 2.59244 6.09236 2.625 6.08469C2.69345 6.06857 2.80617 6.04945 2.99247 6.03423Z" fill="white"/>
</svg>
