<svg width="26" height="26" viewBox="0 0 26 26" fill="none" xmlns="http://www.w3.org/2000/svg">
<path d="M11.364 9.02963L10.9836 11.2038L12.9756 10.1773L14.9676 11.2038L14.5872 9.02963L16.1988 7.48982L13.9717 7.17259L12.9756 5.19443L11.9796 7.17259L9.75243 7.48982L11.364 9.02963Z" fill="white"/>
<path d="M20.8961 2.57633C20.8992 2.26433 20.9003 1.95694 20.9003 1.65541V0.686035H5.00247V1.65541C5.00247 1.95694 5.00359 2.26433 5.00669 2.57633H0.591797V3.5457C0.591797 6.02659 1.2439 8.12268 2.58537 9.95389C3.7243 11.5085 5.1567 12.5997 6.42048 13.5624C7.20694 14.1615 7.90795 14.6963 8.40374 15.2369C9.37694 16.5253 10.5778 17.644 11.982 18.5705V20.1706H11.4973C9.09199 20.1706 7.13511 22.1274 7.13511 24.5328V25.5021H18.7677V24.5328C18.7677 22.1274 16.8108 20.1706 14.4055 20.1706H13.9208V18.5705C15.3224 17.6457 16.5216 16.5293 17.4939 15.2438C17.9946 14.699 18.7098 14.1597 19.5126 13.5552C20.79 12.5934 22.2377 11.5032 23.3895 9.95039C24.7477 8.11933 25.4079 6.02436 25.4079 3.5457V2.57633H20.8961ZM2.57224 4.51508H5.06054C5.15433 6.4108 5.3943 8.42115 5.99681 10.4102C6.04465 10.5681 6.09511 10.7241 6.14687 10.8791C4.42002 9.42766 2.84526 7.60265 2.57224 4.51508ZM14.4055 22.1093C15.3973 22.1093 16.2519 22.7082 16.6265 23.5634H9.27623C9.65089 22.7082 10.5054 22.1093 11.4973 22.1093H14.4055ZM16.05 13.9514C15.8643 14.1544 15.6939 14.3637 15.5442 14.5824L15.5482 14.5851C14.8384 15.4218 13.983 16.1959 12.9514 16.8873C11.9197 16.1959 11.0644 15.4218 10.3546 14.5851L10.3586 14.5824C10.2068 14.3606 10.0343 14.1485 9.84641 13.9427C7.42267 10.6499 6.99813 6.52097 6.94715 2.62479H18.9556C18.9046 6.52441 18.4793 10.657 16.05 13.9514ZM19.7408 10.9239C19.798 10.7543 19.8535 10.5833 19.9059 10.4102C20.5085 8.42115 20.7484 6.4108 20.8422 4.51508H23.4267C23.1461 7.63416 21.5144 9.46406 19.7408 10.9239Z" fill="white"/>
</svg>
