<svg width="16" height="13" viewBox="0 0 16 13" fill="none" xmlns="http://www.w3.org/2000/svg">
<path fill-rule="evenodd" clip-rule="evenodd" d="M2.18182 0C0.976833 0 0 0.976833 0 2.18182V10.1818C0 11.3868 0.976833 12.3636 2.18182 12.3636H13.8182C15.0232 12.3636 16 11.3868 16 10.1818V2.18182C16 0.976834 15.0232 0 13.8182 0H2.18182ZM1.81824 2.18182C1.67729 2.44806 1.77886 2.77815 2.0451 2.9191L7.65978 5.89157C7.87264 6.00426 8.12748 6.00426 8.34034 5.89157L13.955 2.9191C14.2213 2.77815 14.3228 2.44806 14.1819 2.18182C14.0409 1.91558 13.7108 1.81401 13.4446 1.95496L8.00006 4.83737L2.55552 1.95496C2.28928 1.81401 1.95919 1.91558 1.81824 2.18182Z" fill="#112540"/>
</svg>
