<svg width="29" height="24" viewBox="0 0 29 24" fill="none" xmlns="http://www.w3.org/2000/svg">
<path fill-rule="evenodd" clip-rule="evenodd" d="M14.5505 0.516314C14.7521 0.465916 14.963 0.465916 15.1646 0.516314L27.8241 3.68118C28.3876 3.82207 28.783 4.32843 28.783 4.90933C28.783 5.49023 28.3876 5.99659 27.8241 6.13748L23.0862 7.32195V13.119C23.0862 13.5617 22.855 13.9722 22.4764 14.2017L21.8203 13.119C22.4764 14.2017 22.4761 14.2018 22.4758 14.202L22.4751 14.2024L22.4695 14.2058L22.458 14.2127C22.4488 14.2182 22.4365 14.2254 22.4211 14.2343C22.3905 14.2522 22.3479 14.2767 22.2939 14.3068C22.1858 14.3671 22.0319 14.4503 21.8371 14.5487C21.4481 14.7452 20.8927 15.0038 20.2115 15.2618C18.8583 15.7744 16.9599 16.3029 14.8576 16.3029C12.7552 16.3029 10.8568 15.7744 9.50361 15.2618C8.82239 15.0038 8.26705 14.7452 7.87803 14.5487C7.68323 14.4503 7.5293 14.3671 7.42125 14.3068C7.36721 14.2767 7.32457 14.2522 7.29396 14.2343C7.27865 14.2254 7.26635 14.2182 7.25712 14.2127L7.2456 14.2058L7.24159 14.2034L7.23935 14.202C7.23904 14.2018 7.23875 14.2017 7.89484 13.119L7.23875 14.2017C6.86014 13.9722 6.62889 13.5617 6.62889 13.119V7.32195L5.36295 7.00546V16.9358H5.99592C6.69508 16.9358 7.26187 17.5026 7.26187 18.2018V21.9996C7.26187 22.6988 6.69508 23.2656 5.99592 23.2656H2.19808C1.49891 23.2656 0.932129 22.6988 0.932129 21.9996V18.2018C0.932129 17.5026 1.49891 16.9358 2.19808 16.9358H2.83105V6.37249L1.89104 6.13748C1.32748 5.99659 0.932129 5.49023 0.932129 4.90933C0.932129 4.32843 1.32748 3.82207 1.89104 3.68118L14.5505 0.516314ZM7.41771 4.90933L14.8576 6.76929L22.2974 4.90933L14.8576 3.04937L7.41771 4.90933ZM3.46402 20.5643V20.7337H4.097H4.72997V20.5643C4.54377 20.672 4.32758 20.7337 4.097 20.7337C3.86641 20.7337 3.65023 20.672 3.46402 20.5643ZM9.16079 7.95492V12.3589C9.47445 12.5124 9.89593 12.703 10.4004 12.8941C11.5791 13.3405 13.1621 13.771 14.8576 13.771C16.553 13.771 18.136 13.3405 19.3147 12.8941C19.8192 12.703 20.2407 12.5124 20.5543 12.3589V7.95492L15.1646 9.30235C14.963 9.35275 14.7521 9.35275 14.5505 9.30235L9.16079 7.95492Z" fill="white"/>
</svg>
