<svg width="40" height="41" viewBox="0 0 40 41" fill="none" xmlns="http://www.w3.org/2000/svg">
<path d="M2.60919 2.77762C-0.525114 6.03324 0.11637 9.49161 0.11637 19.998C0.11637 28.7229 -1.40591 37.4693 6.56113 39.5284C9.04897 40.1682 31.0921 40.1682 33.5766 39.5251C36.8937 38.6692 39.5926 35.9786 39.9616 31.2871C40.0131 30.6324 40.0131 9.37528 39.9599 8.7072C39.5677 3.70994 36.4916 0.829903 32.4382 0.246584C31.5093 0.111971 31.3231 0.0720864 26.5569 0.063777C9.65057 0.0720864 5.94458 -0.680745 2.60919 2.77762Z" fill="url(#paint0_linear_0_810)"/>
<path d="M20.0558 5.27886C14.0215 5.27886 8.29136 4.74207 6.10267 10.3592C5.1986 12.6792 5.32989 15.6922 5.32989 20.0064C5.32989 23.7922 5.20858 27.3503 6.10267 29.652C8.28638 35.2724 14.0631 34.734 20.0525 34.734C25.8308 34.734 31.7887 35.3356 34.004 29.652C34.9097 27.3087 34.7767 24.3406 34.7767 20.0064C34.7767 14.253 35.0941 10.5387 32.3038 7.75007C29.4787 4.92488 25.658 5.27886 20.0492 5.27886H20.0558ZM18.7363 7.93288C31.3233 7.91294 32.9254 6.51364 32.0413 25.9526C31.7272 32.8278 26.4923 32.0733 20.0575 32.0733C8.3246 32.0733 7.98724 31.7376 7.98724 19.9998C7.98724 8.12566 8.91789 7.93953 18.7363 7.92956V7.93288ZM27.9165 10.3775C26.941 10.3775 26.1499 11.1686 26.1499 12.1441C26.1499 13.1196 26.941 13.9107 27.9165 13.9107C28.892 13.9107 29.6831 13.1196 29.6831 12.1441C29.6831 11.1686 28.892 10.3775 27.9165 10.3775ZM20.0558 12.4432C15.8795 12.4432 12.4943 15.8301 12.4943 20.0064C12.4943 24.1827 15.8795 27.568 20.0558 27.568C24.2321 27.568 27.6157 24.1827 27.6157 20.0064C27.6157 15.8301 24.2321 12.4432 20.0558 12.4432ZM20.0558 15.0972C26.5454 15.0972 26.5537 24.9156 20.0558 24.9156C13.5678 24.9156 13.5579 15.0972 20.0558 15.0972Z" fill="white"/>
<defs>
<linearGradient id="paint0_linear_0_810" x1="2.68567" y1="37.4013" x2="39.7546" y2="5.31859" gradientUnits="userSpaceOnUse">
<stop stop-color="#FFDD55"/>
<stop offset="0.5" stop-color="#FF543E"/>
<stop offset="1" stop-color="#C837AB"/>
</linearGradient>
</defs>
</svg>
