<svg width="18" height="18" viewBox="0 0 18 18" fill="none" xmlns="http://www.w3.org/2000/svg">
<path fill-rule="evenodd" clip-rule="evenodd" d="M9.00084 0C6.55657 0 6.24981 0.0106876 5.2898 0.0543756C4.33167 0.098251 3.67766 0.24994 3.10541 0.472505C2.51346 0.702382 2.01133 1.00989 1.51108 1.51033C1.01045 2.01058 0.702945 2.51271 0.472317 3.10447C0.24919 3.67691 0.0973135 4.33111 0.0541881 5.28887C0.0112501 6.24888 0 6.55582 0 9.0001C0 11.4444 0.0108751 11.7502 0.0543756 12.7102C0.0984385 13.6683 0.250128 14.3223 0.472505 14.8946C0.70257 15.4865 1.01007 15.9887 1.51052 16.4889C2.01058 16.9896 2.51271 17.2978 3.10428 17.5277C3.67691 17.7502 4.33111 17.9019 5.28906 17.9458C6.24907 17.9895 6.55563 18.0002 8.99972 18.0002C11.4442 18.0002 11.75 17.9895 12.71 17.9458C13.6681 17.9019 14.3229 17.7502 14.8955 17.5277C15.4873 17.2978 15.9887 16.9896 16.4887 16.4889C16.9894 15.9887 17.2969 15.4865 17.5275 14.8948C17.7487 14.3223 17.9006 13.6681 17.9456 12.7104C17.9887 11.7504 18 11.4444 18 9.0001C18 6.55582 17.9887 6.24907 17.9456 5.28906C17.9006 4.33092 17.7487 3.67691 17.5275 3.10466C17.2969 2.51271 16.9894 2.01058 16.4887 1.51033C15.9881 1.0097 15.4875 0.702195 14.895 0.472505C14.3212 0.24994 13.6668 0.098251 12.7087 0.0543756C11.7487 0.0106876 11.4431 0 8.99803 0H9.00084ZM8.19364 1.62188C8.43326 1.6215 8.70064 1.62188 9.00102 1.62188C11.404 1.62188 11.6889 1.6305 12.6378 1.67363C13.5153 1.71375 13.9916 1.86038 14.3088 1.98357C14.7288 2.14669 15.0283 2.3417 15.3431 2.6567C15.6581 2.9717 15.8531 3.27171 16.0166 3.69171C16.1398 4.00859 16.2866 4.48484 16.3265 5.36235C16.3697 6.31111 16.379 6.59611 16.379 8.99802C16.379 11.3999 16.3697 11.6849 16.3265 12.6337C16.2864 13.5112 16.1398 13.9874 16.0166 14.3043C15.8535 14.7243 15.6581 15.0234 15.3431 15.3382C15.0281 15.6532 14.729 15.8482 14.3088 16.0113C13.9919 16.1351 13.5153 16.2813 12.6378 16.3215C11.689 16.3646 11.404 16.374 9.00102 16.374C6.59781 16.374 6.31299 16.3646 5.36423 16.3215C4.48672 16.281 4.01047 16.1343 3.69303 16.0112C3.27302 15.848 2.97302 15.653 2.65802 15.338C2.34301 15.023 2.14801 14.7238 1.98451 14.3036C1.86132 13.9867 1.71451 13.5104 1.67457 12.6329C1.63144 11.6842 1.62282 11.3992 1.62282 8.99576C1.62282 6.59237 1.63144 6.30886 1.67457 5.3601C1.71469 4.48259 1.86132 4.00634 1.98451 3.68908C2.14764 3.26908 2.34301 2.96908 2.65802 2.65407C2.97302 2.33907 3.27302 2.14407 3.69303 1.98057C4.01028 1.85682 4.48672 1.71056 5.36423 1.67025C6.19449 1.63275 6.51624 1.6215 8.19364 1.61963V1.62188ZM13.8038 3.11629C13.2076 3.11629 12.7238 3.59948 12.7238 4.19592C12.7238 4.79218 13.2076 5.27593 13.8038 5.27593C14.4001 5.27593 14.8838 4.79218 14.8838 4.19592C14.8838 3.59967 14.4001 3.11629 13.8038 3.11629ZM9.00094 4.37814C6.44847 4.37814 4.37901 6.4476 4.37901 9.00006C4.37901 11.5525 6.44847 13.621 9.00094 13.621C11.5534 13.621 13.6221 11.5525 13.6221 9.00006C13.6221 6.4476 11.5534 4.37814 9.00094 4.37814ZM9.00021 6.00008C10.657 6.00008 12.0002 7.34316 12.0002 9.00011C12.0002 10.6569 10.657 12.0001 9.00021 12.0001C7.34326 12.0001 6.00018 10.6569 6.00018 9.00011C6.00018 7.34316 7.34326 6.00008 9.00021 6.00008Z" fill="white"/>
</svg>
