<svg width="30" height="30" viewBox="0 0 30 30" fill="none" xmlns="http://www.w3.org/2000/svg">
<rect width="30" height="30" rx="15" fill="#112540"/>
<path fill-rule="evenodd" clip-rule="evenodd" d="M15.0009 6.6001C12.7196 6.6001 12.4333 6.61007 11.5372 6.65085C10.643 6.6918 10.0326 6.83338 9.49848 7.0411C8.946 7.25565 8.47734 7.54266 8.01044 8.00974C7.54318 8.47664 7.25618 8.9453 7.04093 9.4976C6.83268 10.0319 6.69092 10.6425 6.65067 11.5364C6.6106 12.4324 6.6001 12.7189 6.6001 15.0002C6.6001 17.2815 6.61025 17.5669 6.65085 18.4629C6.69197 19.3572 6.83355 19.9676 7.0411 20.5017C7.25583 21.0542 7.54283 21.5229 8.00991 21.9898C8.47664 22.457 8.9453 22.7447 9.49743 22.9593C10.0319 23.167 10.6425 23.3086 11.5365 23.3495C12.4326 23.3903 12.7187 23.4003 14.9998 23.4003C17.2813 23.4003 17.5668 23.3903 18.4628 23.3495C19.357 23.3086 19.9681 23.167 20.5026 22.9593C21.0549 22.7447 21.5229 22.457 21.9896 21.9898C22.4568 21.5229 22.7438 21.0542 22.9591 20.5019C23.1656 19.9676 23.3073 19.357 23.3493 18.4631C23.3896 17.5671 23.4001 17.2815 23.4001 15.0002C23.4001 12.7189 23.3896 12.4326 23.3493 11.5365C23.3073 10.6423 23.1656 10.0319 22.9591 9.49778C22.7438 8.9453 22.4568 8.47664 21.9896 8.00974C21.5223 7.54248 21.0551 7.25548 20.5021 7.0411C19.9666 6.83338 19.3558 6.6918 18.4615 6.65085C17.5655 6.61007 17.2803 6.6001 14.9983 6.6001H15.0009ZM14.2475 8.11385C14.4711 8.1135 14.7207 8.11385 15.001 8.11385C17.2439 8.11385 17.5097 8.1219 18.3954 8.16215C19.2144 8.1996 19.6589 8.33645 19.955 8.45143C20.347 8.60368 20.6265 8.78568 20.9203 9.07968C21.2143 9.37369 21.3963 9.65369 21.5489 10.0457C21.6639 10.3414 21.8009 10.786 21.8382 11.605C21.8784 12.4905 21.8872 12.7565 21.8872 14.9982C21.8872 17.24 21.8784 17.506 21.8382 18.3915C21.8007 19.2105 21.6639 19.655 21.5489 19.9508C21.3967 20.3428 21.2143 20.6219 20.9203 20.9158C20.6263 21.2098 20.3472 21.3918 19.955 21.544C19.6592 21.6595 19.2144 21.796 18.3954 21.8335C17.5099 21.8737 17.2439 21.8825 15.001 21.8825C12.7581 21.8825 12.4922 21.8737 11.6067 21.8335C10.7877 21.7957 10.3432 21.6588 10.0469 21.5438C9.65492 21.3916 9.37492 21.2096 9.08091 20.9156C8.78691 20.6216 8.60491 20.3423 8.45231 19.9501C8.33733 19.6543 8.2003 19.2098 8.16303 18.3908C8.12278 17.5053 8.11473 17.2393 8.11473 14.9961C8.11473 12.753 8.12278 12.4884 8.16303 11.6029C8.20048 10.7839 8.33733 10.3393 8.45231 10.0432C8.60456 9.65124 8.78691 9.37124 9.08091 9.07723C9.37492 8.78323 9.65492 8.60123 10.0469 8.44863C10.343 8.33313 10.7877 8.19662 11.6067 8.159C12.3816 8.124 12.6819 8.1135 14.2475 8.11175V8.11385ZM19.4837 9.50863C18.9272 9.50863 18.4757 9.95961 18.4757 10.5163C18.4757 11.0728 18.9272 11.5243 19.4837 11.5243C20.0402 11.5243 20.4917 11.0728 20.4917 10.5163C20.4917 9.95979 20.0402 9.50863 19.4837 9.50863ZM15.001 10.6864C12.6187 10.6864 10.6872 12.6179 10.6872 15.0002C10.6872 17.3825 12.6187 19.3131 15.001 19.3131C17.3833 19.3131 19.3141 17.3825 19.3141 15.0002C19.3141 12.6179 17.3833 10.6864 15.001 10.6864ZM15.0003 12.2002C16.5466 12.2002 17.8003 13.4537 17.8003 15.0002C17.8003 16.5465 16.5466 17.8002 15.0003 17.8002C13.4538 17.8002 12.2003 16.5465 12.2003 15.0002C12.2003 13.4537 13.4538 12.2002 15.0003 12.2002Z" fill="white"/>
</svg>
