<svg width="23" height="28" viewBox="0 0 23 28" fill="none" xmlns="http://www.w3.org/2000/svg">
<path fill-rule="evenodd" clip-rule="evenodd" d="M17.125 21.2536C19.9538 18.2163 22.6667 15.3035 22.6667 11.0662C22.6667 4.95451 17.5926 0 11.3333 0C5.07411 0 0 4.95451 0 11.0662C0 15.3035 2.71286 18.2163 5.54168 21.2536C7.17563 23.008 8.84828 24.804 10.0592 26.9207C10.5277 27.7397 12.139 27.7397 12.6075 26.9207C13.8184 24.804 15.491 23.008 17.125 21.2536ZM11.334 15.4535C13.61 15.4535 15.4552 13.6083 15.4552 11.3322C15.4552 9.05617 13.61 7.21104 11.334 7.21104C9.05787 7.21104 7.21274 9.05617 7.21274 11.3322C7.21274 13.6083 9.05787 15.4535 11.334 15.4535Z" fill="black"/>
</svg>
