<svg width="12" height="16" viewBox="0 0 12 16" fill="none" xmlns="http://www.w3.org/2000/svg">
<path fill-rule="evenodd" clip-rule="evenodd" d="M9.06617 11.7519C10.5638 10.1439 12 8.60185 12 6.35859C12 3.12298 9.31371 0.5 6 0.5C2.68629 0.5 0 3.12298 0 6.35859C0 8.60185 1.43622 10.1439 2.93383 11.7519C3.79886 12.6807 4.68438 13.6315 5.32544 14.7521C5.57349 15.1857 6.42651 15.1857 6.67456 14.7521C7.31562 13.6315 8.20114 12.6807 9.06617 11.7519ZM6.00033 8.68124C7.20531 8.68124 8.18215 7.70441 8.18215 6.49943C8.18215 5.29444 7.20531 4.31761 6.00033 4.31761C4.79534 4.31761 3.81851 5.29444 3.81851 6.49943C3.81851 7.70441 4.79534 8.68124 6.00033 8.68124Z" fill="white"/>
</svg>
