<svg width="194" height="17" viewBox="0 0 194 17" fill="none" xmlns="http://www.w3.org/2000/svg">
<path d="M19.629 12.678C19.5616 11.9151 20.1896 10.246 20.0884 10.4019C19.1906 11.4978 19.3213 11.7844 19.0895 12.8972C19.0811 12.9309 19.0768 12.9646 19.0684 13.0025C19.0389 13.1332 18.9968 13.2554 18.9462 13.3692C18.3814 14.5789 16.5563 14.8107 15.8904 14.7433C13.7914 14.5283 12.6449 12.1848 12.2023 10.8319C11.4732 8.97309 12.451 7.07639 13.0495 6.38936C13.3783 6.01423 12.8725 6.01423 12.5775 6.03109C11.8146 6.07745 11.3889 6.64225 10.7777 6.83192C10.626 6.87829 11.136 8.09639 11.2245 8.30714C10.9084 7.58217 10.1539 6.62539 10.0696 6.5158C9.29828 5.50423 6.45323 2.33462 4.77992 1.35255C3.84842 0.817261 2.00651 -0.223819 1.00758 0.197671C0.118241 0.619161 0.5313 6.04795 1.27734 8.80449C1.30684 8.52631 1.33213 8.24813 1.36163 7.96994C1.44172 8.09639 1.51759 8.21862 1.59767 8.34507C1.66932 7.9573 1.74519 7.56953 1.81684 7.17754C1.8885 7.31242 1.96015 7.4473 2.0318 7.58217C2.15404 7.19019 2.27627 6.7982 2.3985 6.40622C2.49544 6.58324 2.59238 6.76027 2.68933 6.94151C2.78627 6.61275 2.88321 6.27977 2.98015 5.95101C3.11925 6.16597 3.26255 6.38093 3.40164 6.59589C3.52809 6.36828 3.65454 6.14489 3.78099 5.91729C3.90322 6.15754 4.02545 6.39357 4.1519 6.63382C4.25727 6.4863 4.35843 6.33456 4.4638 6.18704C4.53967 6.40622 4.61553 6.62539 4.68719 6.84457C4.78413 6.75605 4.88107 6.66333 4.97802 6.57481C5.03702 6.76448 5.09603 6.95415 5.15504 7.14804C5.23091 7.06796 5.30678 6.98366 5.38686 6.90357C5.43744 7.0806 5.49223 7.25763 5.54281 7.43465C5.61868 7.34614 5.69033 7.25763 5.7662 7.16911C5.82099 7.35457 5.87579 7.53581 5.93058 7.72127C5.9643 7.63275 5.99802 7.54845 6.03174 7.45994C6.12025 7.66226 6.20455 7.86457 6.29306 8.06689C6.31835 7.99945 6.34786 7.93201 6.37315 7.86457C6.47852 8.06689 6.78199 8.73284 6.841 9.17962C6.63025 8.82557 6.5291 8.52631 6.38158 8.20176C6.36472 8.2397 6.25934 8.41672 6.25934 8.41672C6.22562 8.33664 6.07389 7.87722 6.03595 7.8435C5.96009 7.90251 5.86736 7.99102 5.86736 7.99102C5.84628 7.91937 5.71984 7.58639 5.71562 7.56531C5.6819 7.60325 5.5976 7.68755 5.53438 7.73813C5.53438 7.73813 5.3995 7.49788 5.31099 7.35457C5.25198 7.37564 5.18033 7.40936 5.11289 7.43044C5.08339 7.40515 4.98645 7.18176 4.93587 7.08482C4.93587 7.08482 4.79677 7.27027 4.75041 7.32085C4.67876 7.23655 4.45958 6.912 4.43429 6.8825C4.43429 6.8825 4.20669 7.18597 4.17297 7.23655C4.11818 7.17754 3.88214 6.82771 3.78099 6.6844C3.71355 6.81506 3.62082 7.03002 3.49016 7.24077C3.37214 7.13539 3.23726 6.95415 3.13189 6.79399C3.08553 6.94994 2.93379 7.51473 2.84528 7.77606C2.78627 7.61589 2.72305 7.40515 2.63875 7.21969C2.58817 7.26184 2.30577 8.26077 2.25941 8.30714C2.19197 8.23548 2.07817 8.06689 1.98122 7.93623C1.94751 7.98259 1.79577 8.73706 1.74519 9.05739C1.7199 9.01524 1.58502 8.79185 1.4923 8.64854C1.4375 8.78342 1.42064 9.19226 1.46701 9.44937C1.5218 9.61797 1.57659 9.78235 1.6356 9.94252C3.68404 15.5441 14.3098 19.4345 19.5489 14.9203C19.9283 15.2617 20.7586 15.5483 22.1748 15.5778C21.5426 15.1268 19.7934 14.5916 19.629 12.678ZM10.0022 8.31978L9.70713 9.22598C9.72399 9.34822 9.74085 9.47466 9.75771 9.5969C9.67762 9.70648 9.59333 9.81185 9.51324 9.92144C9.53853 9.98467 9.56382 10.0521 9.58911 10.1153L10.2593 8.99838C10.1708 9.26813 10.0823 9.53789 9.99374 9.80764C10.0106 9.92987 10.0275 10.0563 10.0443 10.1786C9.96845 10.2713 9.88837 10.364 9.8125 10.4525C9.83779 10.5157 9.86729 10.5832 9.89258 10.6464C10.0696 10.3471 10.3309 9.87508 10.508 9.57582C10.4532 9.78657 10.3183 10.1659 10.2593 10.3767C10.2761 10.4989 10.293 10.6253 10.3099 10.7476C10.2508 10.8192 10.1918 10.8909 10.1328 10.9625C9.69448 10.5705 9.40787 10.0774 9.30671 9.44937L10.0022 8.31978ZM8.84729 7.06374C8.7925 7.40515 8.51853 7.2787 8.33729 7.10589C8.15605 6.93308 8.32464 6.38093 8.32464 6.38093L8.39208 6.67597C8.39208 6.67597 8.9358 6.52423 8.84729 7.06374ZM13.2645 15.679C13.2645 15.679 13.2645 15.679 13.3109 15.6916C13.2814 15.6832 13.2645 15.679 13.2645 15.679ZM16.7966 15.5273C16.1728 15.5821 15.0727 16.1932 14.1665 15.9361C13.9389 15.8729 13.7703 15.8223 13.6396 15.7844C13.9389 15.856 14.411 15.9235 15.039 15.8223C15.667 15.7254 16.6617 15.3123 16.8177 15.2912C15.5363 15.4556 14.5205 15.2912 13.6944 14.8782C12.7756 14.423 12.2529 13.6516 11.7514 12.7539C11.7514 12.7539 12.8219 14.1869 13.5343 14.5747C15.3972 15.5821 15.9747 14.9751 16.8977 15.1395C17.8208 15.3039 17.9262 15.5483 17.9262 15.5483C17.5342 15.4851 17.4204 15.4725 16.7966 15.5273Z" fill="white"/>
<path d="M18.6258 3.99529C18.9209 4.72869 19.0895 5.73605 19.0684 6.43994C19.3171 6.26713 19.6079 6.14489 19.9325 6.09853C20.5099 6.01423 21.0621 6.18283 21.4835 6.5158C22.5921 5.49158 24.6953 4.40836 23.7259 2.14074C22.6216 -0.434563 17.6859 -0.18167 17.1591 1.15445C16.6322 2.48636 18.1917 2.90785 18.6258 3.99529Z" fill="white"/>
<path d="M19.355 7.75498C19.1443 8.28185 19.4056 8.88036 19.9325 9.09111C20.4593 9.30185 21.0578 9.04053 21.2686 8.51367C21.4793 7.9868 21.218 7.38829 20.6911 7.17754C20.1601 6.97101 19.5616 7.22812 19.355 7.75498Z" fill="white"/>
<path d="M24.7332 8.68226C23.9493 8.56846 22.9208 8.33243 22.3265 7.96151C22.3518 8.26499 22.3097 8.57689 22.1916 8.88036C21.9767 9.41987 21.5552 9.81607 21.0536 10.0142C21.3824 11.4852 21.2728 13.8497 23.7217 14.1406C26.5035 14.4735 28.7542 10.0732 27.8607 8.9478C26.9671 7.82664 25.8923 8.85086 24.7332 8.68226Z" fill="white"/>
<path d="M15.8187 14.2501C17.2391 14.0394 16.8219 12.7243 17.4541 11.7423C18.0779 10.7729 18.8197 10.2797 19.4393 9.95095C19.1654 9.82029 18.9125 9.63061 18.7101 9.37351C18.3477 8.9183 18.217 8.3535 18.2971 7.82242C16.8556 7.37143 14.8662 6.09431 13.3867 8.06689C11.7092 10.3134 14.3941 14.4609 15.8187 14.2501Z" fill="white"/>
<path d="M27.1231 7.86879C27.3085 7.86879 27.3928 7.93623 27.5614 8.00366C27.9829 8.17226 28.0209 8.30714 28.0209 8.30714C27.5193 5.25976 26.7311 4.37885 26.7311 4.37885C26.7311 4.37885 27.6879 6.43994 27.1231 7.86879ZM16.6533 2.26719C16.5395 2.11967 16.5437 2.01008 16.4931 1.83305C16.3667 1.3947 16.4552 1.28512 16.4552 1.28512C14.3477 3.54009 14.1286 4.7034 14.1286 4.7034C14.1286 4.7034 15.1781 2.68868 16.6533 2.26719ZM15.5658 4.29455C15.5658 4.29455 16.1686 3.01322 17.707 3.34199C17.5932 3.19446 17.5848 3.18603 17.3614 3.05959C17.2307 2.98793 17.041 2.76454 17.041 2.76454C15.6164 3.40521 15.5658 4.29455 15.5658 4.29455ZM26.4951 7.86879C26.8533 6.35142 26.1789 5.76977 26.1789 5.76977C26.1789 5.76977 26.828 7.03002 25.6268 8.04581C25.8165 8.04581 25.8291 8.0416 26.0609 7.94466C26.2042 7.88143 26.4951 7.86879 26.4951 7.86879Z" fill="white"/>
<path d="M0.198324 9.92566C0.771549 10.2376 1.64403 10.3556 1.64403 10.3556L1.50073 10.0226C1.50073 10.0226 0.581879 9.97624 0.147745 9.71913C-0.488704 9.344 1.03709 11.6411 2.69776 12.071L2.20883 11.443C2.21304 11.443 0.733615 10.9414 0.198324 9.92566Z" fill="white"/>
<path d="M13.2645 15.679C13.2645 15.679 13.2645 15.679 13.3109 15.6916C13.2814 15.6832 13.2645 15.679 13.2645 15.679Z" fill="white"/>
<path d="M173.612 2.95422L173.022 7.76341C174.851 7.41779 176.604 7.05953 178.282 6.68862L178.712 3.01322C178.746 2.7224 178.703 2.51165 178.585 2.3852C178.463 2.25454 178.244 2.19132 177.924 2.19132H173.393C173.527 2.39363 173.603 2.6381 173.608 2.9205V2.94157L173.612 2.95422ZM49.1333 2.19975C49.07 2.19132 48.9984 2.1871 48.9225 2.1871H43.3209L39.1945 10.2376L35.8901 2.7224L35.8268 2.54115C35.7889 2.42735 35.7172 2.34305 35.6077 2.28405C35.477 2.21661 35.3 2.17867 35.0682 2.17867H30.5456C30.6847 2.38099 30.7563 2.62545 30.7647 2.90785V2.92893L29.4623 14.1996C31.1778 14.2291 32.8806 14.2544 34.5708 14.2796L35.4306 6.81085L38.6297 14.3387L38.9838 14.3429L44.5095 3.78876L43.2914 14.3934C45.0069 14.4103 46.7097 14.4272 48.3957 14.444L49.7149 3.01322C49.7233 2.95 49.7276 2.89099 49.7276 2.83198C49.7276 2.63388 49.6812 2.48636 49.5885 2.3852C49.4957 2.28405 49.344 2.22082 49.1333 2.19975ZM162.312 9.50838C162.577 7.28292 162.813 5.06166 163.016 2.81934C163.016 2.62545 162.973 2.48215 162.885 2.3852C162.796 2.28826 162.645 2.22504 162.442 2.19975C162.375 2.19132 162.299 2.1871 162.223 2.1871H157.692C157.831 2.38942 157.903 2.63388 157.911 2.91628V2.93736L157.056 10.2038C158.855 9.98045 160.609 9.74863 162.312 9.50838ZM156.289 5.46629L156.672 2.1871H144.006C144.141 2.38942 144.217 2.63388 144.221 2.91628V2.93736L143.214 11.658C144.976 11.502 146.7 11.3376 148.386 11.1691L148.516 10.0268H153.22L153.41 8.38722H148.706L149.106 4.91414H154.683C155.037 4.91414 155.382 4.9858 155.715 5.13332C155.913 5.22183 156.103 5.33142 156.289 5.46629ZM125.01 2.28826H121.28C120.521 2.28826 119.931 2.50744 119.509 2.94157C119.079 3.38835 118.805 4.07116 118.696 4.9858L117.95 11.2744C117.861 11.991 117.651 12.5347 117.309 12.9098C117.098 13.1458 116.841 13.3102 116.542 13.4029C118.978 13.2891 121.368 13.1711 123.707 13.0405L123.712 12.9941L125.01 2.28826ZM115.446 13.4577C115.084 13.3819 114.806 13.2133 114.607 12.9435C114.393 12.6527 114.283 12.2523 114.283 11.7507C114.283 11.5863 114.296 11.4051 114.317 11.2154L115.383 2.29248H113.179C111.889 2.29248 110.894 2.57909 110.194 3.1481C109.499 3.7129 109.086 4.56852 108.947 5.71919L108.066 13.0573C108.036 13.3018 108.024 13.5378 108.024 13.757C110.549 13.6643 113.023 13.5631 115.446 13.4577ZM94.6879 3.08488C94.1146 3.62017 93.7943 4.40835 93.7226 5.45365C93.6552 6.5158 93.887 7.46837 94.4265 8.31978C94.9703 9.17962 95.8259 9.9383 96.9976 10.5958L100.108 12.2439L100.121 12.2523C100.277 12.3661 100.382 12.4925 100.437 12.6358C100.496 12.7918 100.488 12.9562 100.42 13.1248C100.348 13.3018 100.218 13.4282 100.02 13.5083C99.8595 13.5758 99.653 13.6095 99.4043 13.6095H95.2316C94.907 13.5715 94.612 13.4367 94.3591 13.1922C94.3001 13.1374 94.2453 13.0784 94.1905 13.011L94.1273 14.1616C98.3717 14.0647 102.494 13.9467 106.494 13.8076C106.527 13.6263 106.549 13.4409 106.557 13.2386C106.62 12.1511 106.346 11.1859 105.731 10.3387C105.107 9.47888 104.133 8.74127 102.81 8.12168C101.836 7.63275 100.854 7.10167 99.889 6.59167L99.8764 6.58324C99.6909 6.45258 99.5687 6.31349 99.5097 6.16175C99.438 5.98473 99.4549 5.80349 99.5476 5.62225C99.6361 5.45786 99.7794 5.33142 99.9818 5.25555C100.155 5.18811 100.37 5.15439 100.622 5.15439H106.161L106.334 2.21239H97.2084C96.1041 2.26297 95.2611 2.5538 94.6879 3.08488ZM73.8368 14.4609L75.1055 3.60331L77.6934 3.61595C77.2635 4.20604 77.0317 4.94365 76.9474 5.66018L76.058 13.0447C75.9948 13.5758 75.999 14.0394 76.0791 14.444C81.3477 14.3977 86.4562 14.326 91.4044 14.2249C91.5478 13.8582 91.6447 13.4451 91.7037 12.9815L92.6057 5.59696C92.7448 4.45472 92.5467 3.60752 92.0072 3.05537C91.4635 2.49479 90.5573 2.21661 89.2886 2.21661H81.3772L74.5533 2.19132C74.5238 2.19132 74.4859 2.1871 74.4479 2.1871C74.4226 2.1871 74.4016 2.18289 74.3678 2.18289H69.8158L69.8242 2.19132L63.6325 2.21661H55.6284C54.3387 2.21661 53.3439 2.50322 52.6443 3.07645C51.9488 3.64546 51.5315 4.5053 51.3924 5.66018L50.4989 13.0447C50.4314 13.58 50.4399 14.052 50.5242 14.4567C55.7211 14.4946 60.7917 14.5073 65.7273 14.4988C65.9338 14.0647 66.0729 13.5631 66.1446 12.9815L67.0466 5.59696C67.1435 4.81299 67.0761 4.16811 66.8527 3.66232C68.2942 3.64124 69.7146 3.60752 69.997 3.60752L68.7157 14.4904C70.4353 14.482 72.1466 14.4735 73.8368 14.4609ZM57.2259 7.19862C57.4029 5.71919 58.0857 4.98158 59.2785 4.98158C59.8897 4.98158 60.3322 5.18811 60.6062 5.59696C60.8633 5.98051 60.9476 6.53688 60.8591 7.26184L60.3786 11.2576C60.2901 11.9783 60.0794 12.5263 59.7422 12.9014C59.3923 13.2934 58.916 13.4872 58.3175 13.4872C57.7064 13.4872 57.2638 13.2807 56.9898 12.8677C56.7369 12.4799 56.6526 11.9235 56.7411 11.1943L57.2259 7.19862ZM82.785 7.19862C82.962 5.71919 83.6448 4.98158 84.8376 4.98158C85.4488 4.98158 85.8914 5.18811 86.1653 5.59696C86.4224 5.98051 86.5067 6.53688 86.4182 7.26184L85.9377 11.2576C85.8492 11.9783 85.6385 12.5263 85.3013 12.9014C84.9472 13.2934 84.4752 13.4872 83.8766 13.4872C83.2655 13.4872 82.8229 13.2807 82.549 12.8677C82.2961 12.4799 82.2118 11.9235 82.3003 11.1943L82.785 7.19862ZM132.289 9.71913C132.972 10.579 133.642 11.4725 134.308 12.3703C135.72 12.2691 137.111 12.1638 138.481 12.0542L136.647 9.59268H138.055C139.235 9.59268 140.146 9.35243 140.782 8.86772C141.406 8.39565 141.777 7.67912 141.895 6.71812L142.127 4.90571C142.236 3.99108 142.051 3.31248 141.562 2.86992C141.056 2.41471 140.221 2.1871 139.058 2.1871H127.345C127.48 2.38942 127.551 2.63388 127.556 2.9205V2.94579C127.24 5.51266 126.515 9.68119 126.182 12.9056C127.981 12.8002 129.752 12.6864 131.488 12.5726L131.897 9.23441L132.289 9.71913ZM132.517 4.79191C132.622 3.93629 133.267 3.50637 134.464 3.50637C135.041 3.50637 135.471 3.61174 135.754 3.82248C136.074 4.05852 136.205 4.40414 136.154 4.85513L135.888 6.97101C135.838 7.40515 135.636 7.73812 135.286 7.9573C134.961 8.16383 134.514 8.26499 133.945 8.26499C133.368 8.26499 132.938 8.15962 132.656 7.94887C132.335 7.71284 132.205 7.363 132.255 6.912L132.517 4.79191ZM171.302 8.07953L169.532 2.5833C169.494 2.45686 169.422 2.36413 169.317 2.30091C169.186 2.22504 169.001 2.1871 168.76 2.1871H164.234C164.369 2.38942 164.444 2.63388 164.453 2.91628V2.93736L163.703 9.31028C165.502 9.04896 167.243 8.77499 168.929 8.49259L169.136 6.75184L169.658 8.36614C170.21 8.27342 170.758 8.17647 171.302 8.07953ZM192.672 2.46107C192.254 2.26719 191.723 2.17024 191.078 2.17024H184.09C182.994 2.17024 182.139 2.45264 181.523 3.02165C180.908 3.59488 180.52 4.46315 180.368 5.63068L180.288 6.22919C185.093 5.09117 189.215 3.83513 192.672 2.46107Z" fill="white"/>
<path d="M192.823 12.9688L193.064 11.1817H193.359L193.548 9.82028H187.23L187.04 11.1817H190.943C190.91 11.4262 190.884 11.6791 190.846 11.9235C190.766 12.4293 190.61 12.8171 190.383 13.0826C190.134 13.3734 189.81 13.5168 189.409 13.5168H186.063C185.51 13.5168 185.118 13.306 184.887 12.8803C184.68 12.4967 184.625 11.9446 184.722 11.2238L185.253 7.21126C185.338 6.58324 185.498 6.0901 185.734 5.72762C183.985 6.22919 182.122 6.70969 180.149 7.16911L179.348 13.032C179.31 13.3102 179.289 13.5715 179.289 13.8118C179.281 14.5873 179.458 15.1859 179.812 15.6116C180.162 16.033 180.705 16.2944 181.435 16.3955C181.645 16.425 181.869 16.4419 182.109 16.4419H189.085C190.185 16.4419 191.045 16.1553 191.656 15.5863C192.284 15.0173 192.672 14.1448 192.823 12.9688ZM188.2 4.99423H190.387C190.813 4.99423 191.129 5.13753 191.331 5.41993C191.479 5.62646 191.555 5.90886 191.559 6.25448H193.734L193.822 5.56324C193.961 4.48422 193.839 3.66653 193.456 3.11017C191.854 3.76769 190.105 4.3915 188.2 4.99423ZM43.1903 15.287L43.1523 15.62C43.1186 15.915 43.1608 16.1216 43.2788 16.2522C43.401 16.3829 43.6202 16.4461 43.9363 16.4461H48.6022L48.6359 16.1553L48.6064 16.1511C48.4715 16.13 48.3746 16.0668 48.3114 15.9572C48.2608 15.8687 48.2439 15.7633 48.2566 15.6411L48.2903 15.3376C46.6043 15.3249 44.9015 15.3081 43.1903 15.287ZM29.357 15.0931L29.298 15.6116C29.2642 15.9066 29.3064 16.1131 29.4244 16.2438C29.5466 16.3745 29.7658 16.4377 30.0819 16.4377H34.752L34.7858 16.1468L34.7605 16.1426C34.6256 16.1216 34.5286 16.0583 34.4654 15.9487C34.4148 15.8602 34.3938 15.7549 34.4106 15.6284L34.4612 15.1732C32.7753 15.1521 31.0724 15.1226 29.357 15.0931ZM64.8843 15.5821C64.956 15.523 65.0276 15.4598 65.0951 15.3924C60.4755 15.4008 55.738 15.3882 50.8909 15.3544C50.9541 15.443 51.0215 15.523 51.0932 15.6031C51.6369 16.1679 52.5473 16.4461 53.8202 16.4461H61.9044C63.1899 16.4461 64.1847 16.1595 64.8843 15.5821ZM73.6977 15.6411L73.7314 15.3587C72.0412 15.3713 70.3342 15.3797 68.6103 15.384L68.5808 15.62C68.5471 15.9108 68.5892 16.1216 68.7115 16.2522C68.8337 16.3829 69.0529 16.4461 69.369 16.4461H74.0433L74.077 16.1553L74.0517 16.1511C73.9169 16.13 73.8199 16.0668 73.7567 15.9572C73.6977 15.8729 73.6808 15.7675 73.6977 15.6411ZM90.4435 15.5821C90.6078 15.4472 90.7554 15.2954 90.8902 15.1268C86.2159 15.2196 81.3941 15.2912 76.4331 15.3334C76.4964 15.4303 76.5722 15.5188 76.6523 15.5989C77.196 16.1637 78.1065 16.4419 79.3794 16.4419H87.4635C88.7491 16.4461 89.7438 16.1595 90.4435 15.5821ZM94.0683 15.0594L94.0514 15.3797C94.0472 15.4219 94.0472 15.4725 94.0472 15.5273C94.0472 15.8392 94.1104 16.0668 94.2327 16.2143C94.3465 16.3534 94.5319 16.4292 94.7848 16.4419C94.8059 16.4419 94.8396 16.4419 94.8775 16.4419H102.506C103.813 16.4419 104.804 16.1721 105.47 15.6368C105.781 15.3882 106.022 15.0805 106.203 14.7096C102.275 14.8487 98.2326 14.9667 94.0683 15.0594ZM108.142 14.6463C108.247 15.0299 108.424 15.3502 108.677 15.6073C109.225 16.1679 110.135 16.4461 111.404 16.4461H119.488C120.778 16.4461 121.769 16.1595 122.468 15.5863C122.957 15.1859 123.307 14.6379 123.518 13.9467C118.612 14.2164 113.486 14.4525 108.142 14.6463ZM126.097 13.7991C126.042 14.4777 126.009 15.0973 126.009 15.6242C126 15.6916 125.996 15.7549 125.996 15.8139C125.996 16.0078 126.038 16.1511 126.127 16.248C126.215 16.3449 126.363 16.4082 126.565 16.4335C126.633 16.4419 126.704 16.4461 126.784 16.4461H131.454L131.488 16.1553L131.463 16.1511C131.328 16.13 131.231 16.0668 131.168 15.9572C131.117 15.8687 131.096 15.7633 131.113 15.6368L131.379 13.4662C129.65 13.5842 127.889 13.6938 126.097 13.7991ZM134.927 13.2217C135.716 14.3049 136.5 15.3882 137.284 16.4503H141.195C141.368 16.4503 141.494 16.4335 141.574 16.404C141.604 16.3913 141.621 16.3829 141.625 16.3787C141.625 16.3787 141.621 16.366 141.616 16.3407C141.595 16.2691 141.545 16.1806 141.465 16.071L139.109 12.9014C137.735 13.011 136.344 13.1163 134.927 13.2217ZM143.113 12.56L142.759 15.62C142.725 15.9108 142.767 16.1216 142.889 16.2522C143.012 16.3829 143.231 16.4461 143.547 16.4461H148.356L148.39 16.1511C148.242 16.1384 148.129 16.0963 148.04 16.033C147.914 15.9361 147.859 15.8054 147.88 15.6411L148.289 12.0753C146.594 12.2439 144.875 12.404 143.113 12.56ZM161.587 15.9614C161.536 15.8729 161.515 15.7675 161.528 15.6411C161.768 13.8877 161.996 12.1553 162.202 10.423C160.499 10.6633 158.746 10.8909 156.942 11.1143L156.411 15.62C156.402 15.6832 156.398 15.7422 156.398 15.8012C156.398 15.9993 156.445 16.1468 156.533 16.248C156.626 16.3492 156.777 16.4124 156.984 16.4377C157.047 16.4461 157.115 16.4503 157.191 16.4503H161.861L161.894 16.1595L161.869 16.1553C161.747 16.13 161.65 16.0668 161.587 15.9614ZM163.589 10.2249L162.952 15.62C162.944 15.6832 162.94 15.7422 162.94 15.8012C162.94 15.9993 162.986 16.1468 163.075 16.248C163.167 16.3492 163.319 16.4124 163.526 16.4377C163.589 16.4461 163.656 16.4503 163.732 16.4503H168.402L168.436 16.1595L168.411 16.1553C168.276 16.1342 168.179 16.071 168.116 15.9614C168.065 15.8729 168.044 15.7675 168.061 15.6411L168.807 9.41565C167.129 9.69384 165.384 9.96781 163.589 10.2249ZM172.908 8.69069L172.52 11.8603L171.576 8.93516C171.032 9.0321 170.484 9.12904 169.932 9.22598L172.124 15.9783C172.149 16.1342 172.221 16.248 172.33 16.3197C172.461 16.404 172.651 16.4461 172.904 16.4461H177.578L177.612 16.1553L177.586 16.1511C177.452 16.13 177.355 16.0668 177.291 15.9572C177.241 15.8687 177.22 15.7633 177.237 15.6368L178.172 7.62011C176.491 7.99523 174.737 8.34928 172.908 8.69069Z" fill="white"/>
<path d="M192.824 12.9685L193.064 11.1814H193.359L193.549 9.81998H187.231L187.041 11.1814H190.944C190.91 11.4259 190.885 11.6788 190.847 11.9232C190.767 12.429 190.611 12.8168 190.383 13.0823C190.135 13.3731 189.81 13.5164 189.41 13.5164H186.063C185.511 13.5164 185.119 13.3057 184.887 12.88C184.681 12.4964 184.626 11.9443 184.723 11.2235L185.254 7.21096C185.338 6.58294 185.498 6.0898 185.734 5.72732C183.985 6.22889 182.122 6.70939 180.15 7.16881L179.349 13.0317C179.311 13.3099 179.29 13.5712 179.29 13.8115C179.281 14.587 179.458 15.1855 179.812 15.6113C180.162 16.0327 180.706 16.2941 181.435 16.3952C181.646 16.4247 181.869 16.4416 182.109 16.4416H189.085C190.185 16.4416 191.045 16.155 191.656 15.586C192.284 15.017 192.672 14.1445 192.824 12.9685ZM188.2 4.99392H190.388C190.813 4.99392 191.129 5.13723 191.332 5.41963C191.479 5.62616 191.555 5.90856 191.559 6.25418H193.734L193.823 5.56293C193.962 4.48392 193.84 3.66623 193.456 3.10986C191.854 3.76739 190.105 4.39119 188.2 4.99392ZM43.1907 15.2867L43.1527 15.6197C43.119 15.9147 43.1611 16.1213 43.2792 16.2519C43.4014 16.3826 43.6206 16.4458 43.9367 16.4458H48.6026L48.6363 16.155L48.6068 16.1508C48.4719 16.1297 48.375 16.0665 48.3118 15.9569C48.2612 15.8684 48.2443 15.763 48.257 15.6408L48.2907 15.3373C46.6047 15.3246 44.9019 15.3078 43.1907 15.2867ZM29.3574 15.0928L29.2983 15.6113C29.2646 15.9063 29.3068 16.1128 29.4248 16.2435C29.547 16.3741 29.7662 16.4374 30.0823 16.4374H34.7524L34.7861 16.1465L34.7609 16.1423C34.626 16.1213 34.529 16.058 34.4658 15.9484C34.4152 15.8599 34.3942 15.7546 34.411 15.6281L34.4616 15.1729C32.7756 15.1518 31.0728 15.1223 29.3574 15.0928ZM64.8847 15.5817C64.9564 15.5227 65.028 15.4595 65.0955 15.3921C60.4759 15.4005 55.7384 15.3879 50.8913 15.3541C50.9545 15.4427 51.0219 15.5227 51.0936 15.6028C51.6373 16.1676 52.5477 16.4458 53.8206 16.4458H61.9048C63.1903 16.4458 64.1851 16.1592 64.8847 15.5817ZM73.6981 15.6408L73.7318 15.3584C72.0416 15.371 70.3346 15.3794 68.6107 15.3836L68.5812 15.6197C68.5475 15.9105 68.5896 16.1213 68.7119 16.2519C68.8341 16.3826 69.0533 16.4458 69.3694 16.4458H74.0437L74.0774 16.155L74.0521 16.1508C73.9173 16.1297 73.8203 16.0665 73.7571 15.9569C73.6981 15.8726 73.6812 15.7672 73.6981 15.6408ZM90.4439 15.5817C90.6082 15.4469 90.7558 15.2951 90.8906 15.1265C86.2163 15.2193 81.3945 15.2909 76.4335 15.3331C76.4968 15.43 76.5726 15.5185 76.6527 15.5986C77.1964 16.1634 78.1069 16.4416 79.3798 16.4416H87.4639C88.7495 16.4458 89.7442 16.1592 90.4439 15.5817ZM94.0687 15.0591L94.0518 15.3794C94.0476 15.4216 94.0476 15.4722 94.0476 15.527C94.0476 15.8389 94.1108 16.0665 94.2331 16.214C94.3469 16.3531 94.5323 16.4289 94.7852 16.4416C94.8063 16.4416 94.84 16.4416 94.8779 16.4416H102.507C103.814 16.4416 104.804 16.1718 105.47 15.6365C105.782 15.3879 106.022 15.0802 106.203 14.7093C102.275 14.8484 98.233 14.9664 94.0687 15.0591ZM108.142 14.646C108.248 15.0296 108.425 15.3499 108.677 15.607C109.225 16.1676 110.136 16.4458 111.405 16.4458H119.489C120.778 16.4458 121.769 16.1592 122.469 15.586C122.958 15.1855 123.307 14.6376 123.518 13.9464C118.612 14.2161 113.487 14.4522 108.142 14.646ZM126.098 13.7988C126.043 14.4774 126.009 15.097 126.009 15.6239C126.001 15.6913 125.997 15.7546 125.997 15.8136C125.997 16.0075 126.039 16.1508 126.127 16.2477C126.216 16.3446 126.363 16.4079 126.566 16.4332C126.633 16.4416 126.705 16.4458 126.785 16.4458H131.455L131.489 16.155L131.463 16.1508C131.328 16.1297 131.231 16.0665 131.168 15.9569C131.118 15.8684 131.097 15.763 131.113 15.6365L131.379 13.4659C129.651 13.5839 127.889 13.6935 126.098 13.7988ZM134.928 13.2214C135.716 14.3046 136.5 15.3879 137.284 16.45H141.195C141.368 16.45 141.495 16.4332 141.575 16.4037C141.604 16.391 141.621 16.3826 141.625 16.3784C141.625 16.3784 141.621 16.3657 141.617 16.3404C141.596 16.2688 141.545 16.1803 141.465 16.0707L139.109 12.9011C137.735 13.0107 136.344 13.116 134.928 13.2214ZM143.113 12.5597L142.759 15.6197C142.725 15.9105 142.768 16.1213 142.89 16.2519C143.012 16.3826 143.231 16.4458 143.547 16.4458H148.357L148.39 16.1508C148.243 16.1381 148.129 16.096 148.04 16.0327C147.914 15.9358 147.859 15.8051 147.88 15.6408L148.289 12.075C146.595 12.2435 144.875 12.4037 143.113 12.5597ZM161.587 15.9611C161.537 15.8726 161.515 15.7672 161.528 15.6408C161.768 13.8874 161.996 12.155 162.202 10.4227C160.5 10.663 158.746 10.8906 156.942 11.114L156.411 15.6197C156.403 15.6829 156.399 15.7419 156.399 15.8009C156.399 15.999 156.445 16.1465 156.533 16.2477C156.626 16.3489 156.778 16.4121 156.984 16.4374C157.048 16.4458 157.115 16.45 157.191 16.45H161.861L161.895 16.1592L161.87 16.155C161.747 16.1297 161.65 16.0665 161.587 15.9611ZM163.589 10.2246L162.953 15.6197C162.944 15.6829 162.94 15.7419 162.94 15.8009C162.94 15.999 162.986 16.1465 163.075 16.2477C163.168 16.3489 163.319 16.4121 163.526 16.4374C163.589 16.4458 163.657 16.45 163.732 16.45H168.403L168.436 16.1592L168.411 16.155C168.276 16.1339 168.179 16.0707 168.116 15.9611C168.065 15.8726 168.044 15.7672 168.061 15.6408L168.807 9.41535C167.13 9.69354 165.385 9.9675 163.589 10.2246ZM172.908 8.69039L172.521 11.86L171.576 8.93485C171.033 9.0318 170.485 9.12874 169.933 9.22568L172.124 15.9779C172.15 16.1339 172.221 16.2477 172.331 16.3194C172.462 16.4037 172.651 16.4458 172.904 16.4458H177.578L177.612 16.155L177.587 16.1508C177.452 16.1297 177.355 16.0665 177.292 15.9569C177.241 15.8684 177.22 15.763 177.237 15.6365L178.173 7.6198C176.491 7.99493 174.738 8.34898 172.908 8.69039Z" fill="#FE5414"/>
</svg>
