<svg width="19" height="16" viewBox="0 0 19 16" fill="none" xmlns="http://www.w3.org/2000/svg">
<path d="M9.5 14H4.5C3.94772 14 3.5 13.5523 3.5 13V11C3.5 10.4477 3.94772 10 4.5 10H9.5M18.5 10V8L17.6608 3.80388C17.5673 3.33646 17.1569 3 16.6802 3H2.3198C1.84312 3 1.43271 3.33646 1.33922 3.80388L0.5 8V10H1.5V15C1.5 15.5523 1.94772 16 2.5 16H10.5C11.0523 16 11.5 15.5523 11.5 15V11C11.5 10.4477 11.9477 10 12.5 10H14.5C15.0523 10 15.5 10.4477 15.5 11V15C15.5 15.5523 15.9477 16 16.5 16C17.0523 16 17.5 15.5523 17.5 15V10M17.5 1C17.5 0.447715 17.0523 0 16.5 0H2.5C1.94772 0 1.5 0.447715 1.5 1C1.5 1.55228 1.94772 2 2.5 2H16.5C17.0523 2 17.5 1.55228 17.5 1Z" fill="#B5CAD3"/>
</svg>
