<svg width="21" height="21" viewBox="0 0 21 21" fill="none" xmlns="http://www.w3.org/2000/svg">
<path d="M10.9038 7.06055C10.318 6.47476 10.318 5.52502 10.9038 4.93923L14.4393 1.4037C15.0251 0.817909 15.9749 0.817909 16.5607 1.4037L20.0962 4.93923C20.682 5.52502 20.682 6.47476 20.0962 7.06055L16.5607 10.5961C15.9749 11.1819 15.0251 11.1819 14.4393 10.5961L10.9038 7.06055Z" fill="white" fill-opacity="0.6"/>
<path d="M2 2.99989C1.17157 2.99989 0.5 3.67146 0.5 4.49989V9.49989C0.5 10.3283 1.17157 10.9999 2 10.9999H7C7.82843 10.9999 8.5 10.3283 8.5 9.49989V4.49989C8.5 3.67146 7.82843 2.99989 7 2.99989H2Z" fill="white" fill-opacity="0.6"/>
<path d="M2 12.9999C1.17157 12.9999 0.5 13.6715 0.5 14.4999V19.4999C0.5 20.3283 1.17157 20.9999 2 20.9999H7C7.82843 20.9999 8.5 20.3283 8.5 19.4999V14.4999C8.5 13.6715 7.82843 12.9999 7 12.9999H2Z" fill="white" fill-opacity="0.6"/>
<path d="M12 12.9999C11.1716 12.9999 10.5 13.6715 10.5 14.4999V19.4999C10.5 20.3283 11.1716 20.9999 12 20.9999H17C17.8284 20.9999 18.5 20.3283 18.5 19.4999V14.4999C18.5 13.6715 17.8284 12.9999 17 12.9999H12Z" fill="white" fill-opacity="0.6"/>
</svg>
