<svg width="19" height="20" viewBox="0 0 19 20" fill="none" xmlns="http://www.w3.org/2000/svg">
<path d="M6 19.5C6.55228 19.5 7 19.0523 7 18.5V13.5C7 12.9477 7.44772 12.5 8 12.5H11C11.5523 12.5 12 12.9477 12 13.5V18.5C12 19.0523 12.4464 19.5 12.9987 19.5C14.2383 19.5 16.2851 19.5 17.5019 19.5C18.0542 19.5 18.5 19.0523 18.5 18.5V7.97817C18.5 7.36099 18.2151 6.77838 17.7279 6.39946L10.114 0.477509C9.75286 0.196645 9.2472 0.196646 8.88609 0.477509L1.27217 6.39945C0.784988 6.77837 0.500041 7.35663 0.500053 7.97383C0.500096 10.1405 0.500179 15.4119 0.500054 18.5026C0.500031 19.0549 0.947759 19.5 1.50007 19.5H6Z" fill="white" fill-opacity="0.6"/>
</svg>
