<svg width="24" height="26" viewBox="0 0 24 26" fill="none" xmlns="http://www.w3.org/2000/svg">
<path fill-rule="evenodd" clip-rule="evenodd" d="M21.312 18.2063C19.7563 16.9043 18.1776 16.1156 16.641 17.4157L15.7235 18.2014C15.0522 18.7718 13.8041 21.4369 8.97843 16.0044C4.15375 10.5789 7.02484 9.7341 7.69714 9.16862L8.61967 8.38188C10.1482 7.07884 9.57134 5.43848 8.46893 3.74994L7.80367 2.72717C6.69623 1.04256 5.49031 -0.0637959 3.95779 1.23728L3.12973 1.94535C2.4524 2.42821 0.559111 3.99776 0.0998575 6.97951C-0.452855 10.5572 1.2907 14.6542 5.28531 19.1494C9.27489 23.6467 13.1811 25.9056 16.8812 25.8662C19.9563 25.8338 21.8134 24.219 22.3943 23.6319L23.2254 22.9228C24.7539 21.6228 23.8042 20.2991 22.2476 18.9941L21.312 18.2063Z" fill="black"/>
</svg>
