<svg width="20" height="20" viewBox="0 0 20 20" fill="none" xmlns="http://www.w3.org/2000/svg">
<path d="M2.02529 18.517C2.02529 18.9287 2.35795 19.2614 2.76969 19.2614H9.42277V10.5147H2.02529V18.517ZM11.0046 19.2614H17.6577C18.0694 19.2614 18.4021 18.9287 18.4021 18.517V10.5147H11.0046V19.2614ZM18.7743 4.93165H15.3407C15.6571 4.43383 15.8432 3.84297 15.8432 3.21023C15.8432 1.43995 14.4033 0 12.633 0C11.6699 0 10.8022 0.42803 10.2137 1.10264C9.62515 0.42803 8.75746 0 7.79439 0C6.02412 0 4.58417 1.43995 4.58417 3.21023C4.58417 3.84297 4.76794 4.43383 5.08664 4.93165H1.65309C1.24135 4.93165 0.908691 5.2643 0.908691 5.67605V8.9328H9.42277V4.93165H11.0046V8.9328H19.5187V5.67605C19.5187 5.2643 19.186 4.93165 18.7743 4.93165ZM9.42277 4.8386H7.79439C6.89646 4.8386 6.16602 4.10816 6.16602 3.21023C6.16602 2.31229 6.89646 1.58185 7.79439 1.58185C8.69232 1.58185 9.42277 2.31229 9.42277 3.21023V4.8386ZM12.633 4.8386H11.0046V3.21023C11.0046 2.31229 11.7351 1.58185 12.633 1.58185C13.5309 1.58185 14.2614 2.31229 14.2614 3.21023C14.2614 4.10816 13.5309 4.8386 12.633 4.8386Z" fill="white"/>
</svg>
