<svg width="20" height="20" viewBox="0 0 20 20" fill="none" xmlns="http://www.w3.org/2000/svg">
<path fill-rule="evenodd" clip-rule="evenodd" d="M0.5 10C0.5 4.775 4.775 0.5 10 0.5C15.225 0.5 19.5 4.775 19.5 10C19.5 15.225 15.225 19.5 10 19.5C4.775 19.5 0.5 15.225 0.5 10ZM10 5.5C9.44772 5.5 9 5.94772 9 6.5V10C9 10.3448 9.17762 10.6653 9.47 10.848L12.622 12.818C13.0903 13.1107 13.7073 12.9683 14 12.5C14.2927 12.0317 14.1503 11.4147 13.682 11.122L11 9.44575V6.5C11 5.94772 10.5523 5.5 10 5.5Z" fill="black"/>
</svg>
