<svg width="19" height="20" viewBox="0 0 19 20" fill="none" xmlns="http://www.w3.org/2000/svg">
<path fill-rule="evenodd" clip-rule="evenodd" d="M0 10C0 4.775 4.275 0.5 9.5 0.5C14.725 0.5 19 4.775 19 10C19 15.225 14.725 19.5 9.5 19.5C4.275 19.5 0 15.225 0 10ZM9.5 5.5C8.94771 5.5 8.5 5.94772 8.5 6.5V10C8.5 10.3448 8.67762 10.6653 8.97 10.848L12.122 12.818C12.5903 13.1107 13.2073 12.9683 13.5 12.5C13.7927 12.0317 13.6503 11.4147 13.182 11.122L10.5 9.44575V6.5C10.5 5.94771 10.0523 5.5 9.5 5.5Z" fill="white"/>
</svg>
