<svg width="18" height="18" viewBox="0 0 18 18" fill="none" xmlns="http://www.w3.org/2000/svg">
<path d="M6.36745 5.03296H5.96121C5.81616 5.03296 5.59854 5.07659 5.39548 5.29415C5.38287 5.30766 5.36893 5.32228 5.35386 5.33808C5.12613 5.57687 4.64136 6.08521 4.64136 7.07832C4.64136 8.08166 5.33164 9.04578 5.49038 9.26748C5.49915 9.27974 5.50631 9.28973 5.51163 9.29733C5.51737 9.30554 5.5272 9.32043 5.54103 9.34139C5.77163 9.69075 7.11407 11.7246 9.16664 12.5319C10.7883 13.1676 11.2497 13.1186 11.6093 13.0804C11.6517 13.0759 11.6928 13.0716 11.7341 13.0685C12.1402 13.0395 13.0105 12.5463 13.1846 12.0532C13.3586 11.5455 13.3584 11.125 13.3004 11.009C13.2619 10.9319 13.1439 10.8775 12.9664 10.7956C12.9434 10.7849 12.9194 10.7739 12.8945 10.7622C12.8295 10.7319 12.6909 10.6641 12.5229 10.582C12.1284 10.3891 11.572 10.1171 11.4296 10.0662C11.241 9.99366 11.0958 9.95003 10.9508 10.1676C10.8058 10.3852 10.3997 10.8639 10.2692 11.009C10.1387 11.154 10.0225 11.1686 9.8049 11.067C9.77486 11.053 9.7357 11.0365 9.68838 11.0166C9.39288 10.892 8.77893 10.6332 8.0788 10.0081C7.44061 9.44243 7.02009 8.74633 6.88955 8.52876C6.75901 8.3112 6.87499 8.19516 6.97652 8.09363C6.99867 8.06779 7.02364 8.03913 7.05024 8.00859C7.12818 7.91912 7.22009 7.81361 7.29579 7.71629C7.38956 7.61079 7.4265 7.53371 7.4755 7.43147C7.48713 7.4072 7.49944 7.3815 7.51336 7.35368C7.58588 7.20863 7.55664 7.07815 7.49863 6.97662C7.48695 6.94936 7.4481 6.85313 7.39386 6.71879C7.24602 6.35262 6.98387 5.7033 6.84592 5.39557C6.68638 5.04746 6.527 5.03296 6.36745 5.03296Z" fill="white"/>
<path fill-rule="evenodd" clip-rule="evenodd" d="M18 8.99278C18 6.58503 17.0718 4.33673 15.3747 2.6397C13.6632 0.942678 11.4005 0 8.99278 0C4.03224 0 0 4.03224 0 8.99278C0 10.5157 0.377003 12.0098 1.11673 13.3297L0.348164 16.1436C0.217624 16.5932 0.347994 17.0573 0.681597 17.3909C1.0152 17.7245 1.47957 17.8551 1.92921 17.7391L4.859 16.9702C6.13539 17.6374 7.55678 17.9856 9.00722 17.9856C13.9678 17.9856 18 13.9533 18 8.99278ZM1.88794 16.1991L2.7256 13.1323L2.42525 12.5963C1.81571 11.5087 1.5 10.2686 1.5 8.99278C1.5 4.86067 4.86067 1.5 8.99278 1.5C10.9989 1.5 12.8825 2.28206 14.3163 3.70261C15.7292 5.11664 16.5 6.98192 16.5 8.99278C16.5 13.1249 13.1393 16.4856 9.00722 16.4856C7.79722 16.4856 6.61443 16.1953 5.55388 15.6409L5.03958 15.3721L1.88794 16.1991Z" fill="white"/>
</svg>
